<svg width="184" height="501" viewBox="0 0 184 501" fill="none" xmlns="http://www.w3.org/2000/svg">
<path d="M160.764 241.704C159.729 240.999 158.862 240.075 158.223 238.998C157.584 237.921 157.189 236.717 157.065 235.471C156.942 234.225 157.093 232.966 157.509 231.785C157.924 230.604 158.594 229.528 159.47 228.633L145.906 201.38L161.609 203.292L172.082 228.879C173.488 230.451 174.268 232.483 174.275 234.592C174.282 236.7 173.515 238.738 172.12 240.319C170.725 241.9 168.798 242.914 166.705 243.169C164.612 243.425 162.498 242.903 160.764 241.704Z" fill="#FFB8B8"/>
<path d="M105.777 147.935L116.066 146.514C116.066 146.514 117.06 162.027 121.982 164.378C126.904 166.73 125.245 167.117 125.825 169.605C126.384 171.357 127.306 172.972 128.53 174.344C129.754 175.716 131.254 176.816 132.931 177.57C136.83 179.285 154.564 222.409 154.564 222.409L169.497 218.927C168.115 215.183 167.205 211.282 166.789 207.312C166.264 201.312 159.463 187.153 157.223 185.051C154.984 182.949 155.869 179.243 154.708 174.266C153.548 169.288 154.353 173.904 152.419 165.607C150.484 157.311 128.734 107.592 127.822 99.9323C126.911 92.2724 116.237 87.7635 116.237 87.7635L107.941 89.6982L105.777 147.935Z" fill="#DDDEDF"/>
<path d="M65.4192 173.607L48.7802 251.717L139.603 244.871L112.419 168.607L65.4192 173.607Z" fill="#FFB8B8"/>
<path d="M174.005 500.95H172.425C171.925 500.14 171.385 499.35 170.845 498.57C169.985 497.36 169.098 496.177 168.185 495.02C167.395 494.02 166.605 493.03 165.815 492.04C164.995 491.01 164.185 489.98 163.395 488.92L164.325 487.9C164.475 488.1 164.625 488.3 164.785 488.5C167.345 491.87 170.115 495.11 172.485 498.57C173.015 499.35 173.525 500.14 174.005 500.95Z" fill="white"/>
<path d="M170.393 448.778C163.184 443.842 158.1 436.371 156.155 427.853C155.963 427.009 154.663 427.352 154.855 428.195C156.896 437.055 162.202 444.819 169.716 449.938C170.432 450.426 171.106 449.263 170.393 448.778Z" fill="white"/>
<path d="M167.492 375.124C165.924 375.752 164.225 375.982 162.546 375.792C160.868 375.602 159.263 374.998 157.875 374.034C157.165 373.538 156.492 374.702 157.198 375.195C158.735 376.253 160.509 376.918 162.363 377.132C164.217 377.346 166.095 377.103 167.833 376.423C168.002 376.373 168.146 376.26 168.235 376.108C168.324 375.955 168.352 375.775 168.312 375.603C168.266 375.431 168.154 375.284 168.001 375.194C167.847 375.105 167.664 375.079 167.492 375.124Z" fill="white"/>
<path d="M78.0771 480.388H67.8751L63.0221 441.036L78.0791 441.037L78.0771 480.388Z" fill="#FFB8B8"/>
<path d="M83.566 499.76H76.3266L75.0345 492.925L71.725 499.76H52.5245C51.6041 499.76 50.7078 499.466 49.9665 498.92C49.2251 498.375 48.6776 497.607 48.4037 496.728C48.1298 495.85 48.144 494.906 48.4441 494.036C48.7442 493.166 49.3146 492.415 50.0719 491.892L65.4049 481.303V474.393L81.5325 475.355L83.566 499.76Z" fill="#2F2E41"/>
<path d="M174.502 475.313L164.532 477.475L151.446 440.047L166.161 436.855L174.502 475.313Z" fill="#FFB8B8"/>
<path d="M183.973 493.08L176.898 494.615L174.186 488.209L172.401 495.591L153.637 499.661C152.738 499.856 151.799 499.759 150.959 499.383C150.119 499.007 149.421 498.373 148.967 497.572C148.513 496.771 148.327 495.847 148.436 494.933C148.545 494.019 148.943 493.164 149.572 492.492L162.312 478.893L160.847 472.14L176.812 469.662L183.973 493.08Z" fill="#2F2E41"/>
<path d="M46.4619 304.607C53.6219 343.957 51.4118 318.947 51.4118 318.947C51.4118 318.947 46.0418 325.207 49.6218 328.787C53.2018 332.367 49.6218 339.517 49.6218 339.517L62.4188 443.607L64.4188 452.607H78.4188L79.4188 440.607L85.8118 382.417C85.8118 382.417 89.3918 375.257 87.6018 373.467C85.8118 371.677 89.3918 360.947 89.3918 360.947L93.8618 275.987L110.592 327.997C110.592 327.997 107.902 331.577 110.592 334.257C113.272 336.937 129.632 391.357 129.632 391.357L149.419 438.607L150.419 439.607L155.419 452.607L168.419 446.607L160.702 379.987L160.382 378.557L160.042 377.047C160.042 377.047 161.832 372.577 159.152 369.887C158.368 369.067 157.795 368.069 157.483 366.978C157.171 365.887 157.13 364.737 157.362 363.627C157.45 363.533 157.53 363.433 157.602 363.327C157.918 362.892 158.137 362.394 158.242 361.867C158.482 360.747 158.272 359.177 156.462 357.367C155.952 356.825 155.524 356.212 155.192 355.547C152.472 350.397 151.102 339.487 151.102 339.487C151.102 339.487 148.682 253.077 140.762 239.877C140.342 239.187 121.859 191.877 121.419 191.607C112.479 186.247 60.4189 193.607 60.4189 193.607C60.4189 193.607 44.5619 239.047 44.3719 240.227C43.3418 246.857 40.3919 271.227 46.4619 304.607Z" fill="#2F2E41"/>
<path d="M5.7256 50.2754C5.04603 51.3273 4.60531 52.5154 4.43458 53.756C4.26386 54.9967 4.36725 56.2597 4.73744 57.456C5.10763 58.6524 5.73565 59.753 6.57722 60.6804C7.4188 61.6078 8.45344 62.3394 9.60835 62.8237L7.69026 93.2048L21.4188 85.3455L21.1355 57.7C21.8205 55.7059 21.7502 53.5298 20.9379 51.584C20.1257 49.6383 18.6278 48.0581 16.7283 47.1429C14.8288 46.2278 12.6596 46.0411 10.6317 46.6185C8.60383 47.1958 6.85824 48.497 5.7256 50.2754Z" fill="#FFB8B8"/>
<path d="M58.7601 99.6094C58.7601 99.6094 66.1184 88.6455 80.6003 74.1637C88.2671 71.608 101.551 73.0975 106.156 74.1637C127.453 102.275 128.794 100.407 134.337 116.114C135.775 120.187 136.494 124.101 135.855 127.295C133.299 140.073 115.396 171.636 116.247 175.043C117.099 178.451 123.063 182.71 117.099 182.71C111.136 182.71 61.715 177.163 63.4188 174.607C65.1225 172.052 58.7601 99.6094 58.7601 99.6094Z" fill="#DDDEDF"/>
<path d="M84.776 63.2604C98.3994 63.2604 109.443 52.2164 109.443 38.593C109.443 24.9696 98.3994 13.9257 84.776 13.9257C71.1526 13.9257 60.1086 24.9696 60.1086 38.593C60.1086 52.2164 71.1526 63.2604 84.776 63.2604Z" fill="#FFB8B8"/>
<path d="M89.055 91.253C89.055 91.253 68.6118 73.1111 42.7783 109.859L23.0283 119.359L22.4188 96.6073L25.908 92.0532L24.4188 67.6073L5.14948 70.8442L3.72015 86.7199L0.418762 93.6073L2.57416 99.4492L0.302856 124.677L1.41876 133.607C1.41876 133.607 2.7725 145.014 10.7489 149.763C12.8729 151.035 15.1835 151.966 17.5964 152.521C22.3229 153.602 28.0328 153.353 34.8083 150.647C48.888 145.127 62.6247 138.769 75.9448 131.607L89.055 91.253Z" fill="#DDDEDF"/>
<path d="M139.999 91.4673C145.219 89.6173 150.439 87.764 155.659 85.9073C154.759 84.3977 153.613 83.0491 152.269 81.9173C147.299 77.7673 140.439 77.0173 134.129 75.6173C127.809 74.2173 120.949 71.3473 118.639 65.3073C116.239 59.0273 119.719 52.2473 121.739 45.8473C124.569 36.9173 124.509 26.9473 120.719 18.3873C116.929 9.82734 109.229 2.88733 100.089 0.847327C90.9489 -1.18267 80.6188 2.12734 74.9988 9.60734C71.378 8.52113 67.4847 8.79823 64.0542 10.3864C60.6237 11.9745 57.8934 14.7637 56.3788 18.2273C55.0688 21.5073 55.0289 25.4573 56.9789 28.4073C58.9289 31.3573 63.0988 32.8673 66.2388 31.2273L64.4189 26.6073C70.0489 28.5173 73.7088 38.6973 72.9488 44.5973C72.1988 50.4873 68.7588 55.6473 65.2688 60.4573C61.7788 65.2673 58.0588 70.1273 56.5588 75.8773C54.3988 84.1473 57.3188 93.1873 62.7188 99.8173C68.1188 106.447 75.7287 110.947 83.6087 114.257C89.5074 116.737 95.6374 118.627 101.909 119.897C100.789 117.717 99.6788 115.537 98.5588 113.357L111.849 121.397C114.419 121.647 117.009 121.797 119.599 121.847C127.139 121.977 134.829 121.187 141.729 118.177C148.639 115.157 154.709 109.687 157.209 102.577C158.01 100.278 158.39 97.852 158.329 95.4173C152.219 94.0973 146.109 92.7807 139.999 91.4673Z" fill="#2F2E41"/>
</svg>
