<svg width="65" height="97" viewBox="0 0 65 97" fill="none" xmlns="http://www.w3.org/2000/svg">
<path d="M33 48.5C33 39.3932 40.1691 32 49 32C57.8309 32 65 39.3932 65 48.5C65 57.6068 57.8309 65 49 65C40.1691 65 33 57.6068 33 48.5Z" fill="#1ABCFE"/>
<path d="M0 81C0 72.1691 7.39317 65 16.5 65H33V81C33 89.8309 25.6068 97 16.5 97C7.39317 97 0 89.8309 0 81Z" fill="#0ACF83"/>
<path d="M33 0.0474806V32H49C57.8309 32 65 24.8309 65 16C65 7.16914 57.8309 0 49 0H33V0.0474806Z" fill="#FF7262"/>
<path d="M0 15.9763C0 24.8203 7.39317 32 16.5 32H33V0.00023481H16.5C7.39317 -0.0473131 0 7.13242 0 15.9763Z" fill="#F24E1E"/>
<path d="M0 48.4756C0 57.5959 7.39317 65 16.5 65H33V32.0002H16.5C7.39317 31.9512 0 39.3553 0 48.4756Z" fill="#A259FF"/>
</svg>
