<svg width="114" height="428" viewBox="0 0 114 428" fill="none" xmlns="http://www.w3.org/2000/svg">
<path d="M69.8777 411.305L60.833 411.308L56.5183 376.422L69.8675 376.418L69.8777 411.305Z" fill="#A0616A"/>
<path d="M38.8893 411.111C38.6078 411.585 38.4598 413.116 38.46 413.668C38.4606 415.363 39.8354 416.737 41.5309 416.737L69.5413 416.727C70.6979 416.726 71.6352 415.789 71.6348 414.632L71.6344 413.466C71.6344 413.466 73.0189 409.96 70.1646 405.641C70.1646 405.641 66.6201 409.025 61.3201 403.729L59.7568 400.899L48.4502 409.174L42.1818 409.948C40.8104 410.117 39.5943 409.923 38.8893 411.111Z" fill="#A0616A"/>
<path d="M32.5995 413.247L23.5581 413.005L20.1884 378.015L33.5328 378.372L32.5995 413.247Z" fill="#A0616A"/>
<path d="M1.62769 412.215C1.33352 412.681 1.1441 414.207 1.12936 414.759C1.0841 416.454 2.42128 417.864 4.11612 417.91L32.1166 418.657C33.2728 418.688 34.2352 417.776 34.266 416.62L34.2972 415.454C34.2972 415.454 35 412.215 33.0395 407.593C33.0395 407.593 29.4047 410.879 24.2499 405.442L22.7637 402.571L11.2375 410.537L4.95049 411.141C3.57502 411.273 2.36463 411.046 1.62769 412.215Z" fill="#A0616A"/>
<path d="M21.226 179.09L7.5 240L12 298L17 386.5H37.5L39 301.5L43.8783 243.594L58.1144 388.826L70.2736 388.147L86.7632 212.843L89.1143 174.676L21.226 179.09Z" fill="#2F2E41"/>
<path d="M74.2096 50.3851L48.5415 55.1227L46.5189 66.6072L30.9845 74.0433L22.9075 158.486C22.9075 158.486 9.4032 176.054 20.2134 181.455L89.1141 174.676C89.1141 174.676 92.4874 162.185 89.1094 161C85.7314 159.815 85.7211 129.981 85.7211 129.981L101.237 68.6148L78.2663 60.5165L74.2096 50.3851Z" fill="#E6E6E6"/>
<path d="M59.0699 50.1635C70.5174 50.1635 79.7975 40.8834 79.7975 29.4359C79.7975 17.9883 70.5174 8.70825 59.0699 8.70825C47.6223 8.70825 38.3423 17.9883 38.3423 29.4359C38.3423 40.8834 47.6223 50.1635 59.0699 50.1635Z" fill="#A0616A"/>
<path d="M72.7959 32.5123C71.1419 33.4178 72.7112 37.741 71.6775 38.1147C70.4825 38.5467 66.1258 33.5876 66.0719 28.033C66.0556 26.3518 66.4424 25.5446 66.0703 23.5513C65.5837 20.944 64.0899 17.8688 62.7072 17.9504C61.8875 17.9988 61.087 19.1577 61.0273 20.1918C60.9436 21.6412 62.3515 22.2117 62.1487 22.9925C61.7624 24.4796 55.8504 25.5063 53.7456 22.9954C52.0955 21.0269 53.361 17.5707 52.6233 17.3937C52.0795 17.2633 51.4957 19.1661 49.2634 21.3163C48.4224 22.1264 47.1715 23.3312 46.463 22.9979C45.439 22.5162 46.1829 19.1217 45.9014 19.0766C45.6683 19.0394 45.5219 21.4253 44.2223 23.5589C42.5526 26.2999 39.1083 28.4126 37.5012 27.4826C36.5165 26.9129 36.4387 25.3266 36.3796 24.1218C36.2551 21.5836 32.5665 15.7454 33.5208 13.0301C35.463 7.50384 38.7909 11.3994 40.296 9.5551C42.3336 7.05841 44.1617 8.40076 47.5773 5.63114C50.914 2.9255 50.9431 0.206102 53.1774 0.027142C55.1896 -0.134018 55.9052 2.01242 58.2198 1.70601C60.1806 1.44644 60.6073 -0.218348 62.1407 0.024032C63.5446 0.245932 63.6372 1.71252 65.5027 2.26369C66.6937 2.61557 66.9554 2.10626 68.3038 2.26272C71.1094 2.58828 72.9938 5.14355 73.3468 5.62221C74.7076 7.46747 74.1796 8.24562 75.5891 10.1031C76.8047 11.7049 79.4983 11.0247 80.511 11.8247C83.8203 14.4388 85.2422 19.2597 85.2709 24.7543C85.291 28.5974 84.7899 30.5391 83.6718 35.39C82.8228 39.0734 78.8901 43.8333 76.722 45.9559C76.14 46.5256 74.5084 48.1229 73.3613 47.6376C72.2743 47.1778 72.2413 45.11 72.2399 44.837C72.235 43.898 72.4851 42.7361 74.479 39.7944C76.5734 36.7043 77.4054 36.3517 77.2784 35.3117C77.054 33.4736 74.1143 31.7905 72.7959 32.5123Z" fill="#2F2E41"/>
<path d="M0.494551 226.181C-0.150579 231.368 2.11352 235.892 5.55156 236.287C8.9896 236.681 12.2996 232.796 12.9448 227.609C13.2272 225.338 12.952 223.195 12.2651 221.469L14.7115 199.458L3.92811 198.576L2.66093 220.368C1.57005 221.89 0.776931 223.911 0.494551 226.181Z" fill="#A0616A"/>
<path d="M31.4908 80C31.4908 80 25.9042 80.0763 22.2052 87.0122C20.2395 90.6978 9.72308 159.62 9.72308 159.62L0.0356445 216.079L16.5378 216.159L29.3968 162.69L40.214 131.679L31.4908 80Z" fill="#E6E6E6"/>
<path d="M77.9296 217.13C76.3494 222.337 77.7543 227.373 81.0675 228.378C84.3807 229.384 88.3476 225.978 89.9278 220.772C90.6195 218.493 90.7391 216.246 90.3772 214.357L96.7963 192.211L86.3399 189.42L81.1218 211.547C79.7704 212.917 78.6213 214.851 77.9296 217.13Z" fill="#A0616A"/>
<path d="M89.4156 69.6321C89.4156 69.6321 97.5197 63.5497 104.278 73.0046C111.037 82.4596 113.766 160.143 113.766 160.143L94.8677 208.112L80.6801 203.388L94.1702 144.613L70.5116 100.037L89.4156 69.6321Z" fill="#E6E6E6"/>
</svg>
