<svg width="350" height="748" viewBox="0 0 350 748" fill="none" xmlns="http://www.w3.org/2000/svg">
<g clip-path="url(#clip0_38_46)" filter="url(#filter0_d_38_46)">
<mask id="mask0_38_46" style="mask-type:luminance" maskUnits="userSpaceOnUse" x="4" y="0" width="342" height="740">
<path d="M334.865 0H15.1349C8.98526 0 4 4.97675 4 11.1159V728.884C4 735.023 8.98526 740 15.1349 740H334.865C341.015 740 346 735.023 346 728.884V11.1159C346 4.97675 341.015 0 334.865 0Z" fill="white"/>
</mask>
<g mask="url(#mask0_38_46)">
<path d="M334.865 0H15.1349C8.98526 0 4 4.97675 4 11.1159V728.884C4 735.023 8.98526 740 15.1349 740H334.865C341.015 740 346 735.023 346 728.884V11.1159C346 4.97675 341.015 0 334.865 0Z" fill="#EFEFEF"/>
<path d="M346 0H4V80.1931H346V0Z" fill="#A5A5A5"/>
<path d="M346 80.1931H4V136.567H346V80.1931Z" fill="white"/>
<path d="M23.5337 109.304C23.5337 109.033 23.6228 108.809 23.8009 108.631C23.9791 108.453 24.2039 108.364 24.4754 108.364H32.1616C32.4331 108.364 32.6579 108.453 32.8361 108.631C33.0142 108.809 33.1033 109.033 33.1033 109.304V111.235C33.1033 111.506 33.0142 111.731 32.8361 111.908C32.6579 112.086 32.4331 112.175 32.1616 112.175H24.4754C24.2039 112.175 23.9791 112.086 23.8009 111.908C23.6228 111.731 23.5337 111.506 23.5337 111.235V109.304ZM30.8161 109.304C30.8161 109.033 30.9051 108.809 31.0833 108.631C31.2615 108.453 31.4863 108.364 31.7578 108.364H39.444C39.7155 108.364 39.9404 108.453 40.1185 108.631C40.2967 108.809 40.3858 109.033 40.3858 109.304V111.235C40.3858 111.506 40.2967 111.731 40.1185 111.908C39.9404 112.086 39.7155 112.175 39.444 112.175H31.7578C31.4863 112.175 31.2615 112.086 31.0833 111.908C30.9051 111.731 30.8161 111.506 30.8161 111.235V109.304ZM38.0985 109.304C38.0985 109.033 38.1876 108.809 38.3658 108.631C38.5439 108.453 38.7688 108.364 39.0402 108.364H46.7265C46.9979 108.364 47.2228 108.453 47.4009 108.631C47.5791 108.809 47.6682 109.033 47.6682 109.304V111.235C47.6682 111.506 47.5791 111.731 47.4009 111.908C47.2228 112.086 46.9979 112.175 46.7265 112.175H39.0402C38.7688 112.175 38.5439 112.086 38.3658 111.908C38.1876 111.731 38.0985 111.506 38.0985 111.235V109.304ZM45.3809 109.304C45.3809 109.033 45.47 108.809 45.6481 108.631C45.8263 108.453 46.0511 108.364 46.3226 108.364H54.0088C54.2804 108.364 54.5052 108.453 54.6834 108.631C54.8615 108.809 54.9506 109.033 54.9506 109.304V111.235C54.9506 111.506 54.8615 111.731 54.6834 111.908C54.5052 112.086 54.2804 112.175 54.0088 112.175H46.3226C46.0511 112.175 45.8263 112.086 45.6481 111.908C45.47 111.731 45.3809 111.506 45.3809 111.235V109.304ZM52.6633 109.304C52.6633 109.033 52.7524 108.809 52.9306 108.631C53.1087 108.453 53.3336 108.364 53.605 108.364H61.2913C61.5627 108.364 61.7876 108.453 61.9657 108.631C62.1439 108.809 62.233 109.033 62.233 109.304V111.235C62.233 111.506 62.1439 111.731 61.9657 111.908C61.7876 112.086 61.5627 112.175 61.2913 112.175H53.605C53.3336 112.175 53.1087 112.086 52.9306 111.908C52.7524 111.731 52.6633 111.506 52.6633 111.235V109.304ZM59.9457 109.304C59.9457 109.033 60.0348 108.809 60.213 108.631C60.3911 108.453 60.616 108.364 60.8874 108.364H68.5737C68.8452 108.364 69.07 108.453 69.2482 108.631C69.4264 108.809 69.5154 109.033 69.5154 109.304V111.235C69.5154 111.506 69.4264 111.731 69.2482 111.908C69.07 112.086 68.8452 112.175 68.5737 112.175H60.8874C60.616 112.175 60.3911 112.086 60.213 111.908C60.0348 111.731 59.9457 111.506 59.9457 111.235V109.304ZM67.2282 109.317C67.2282 109.046 67.3173 108.821 67.4954 108.644C67.6736 108.466 67.8984 108.377 68.1699 108.377H72.2166C72.488 108.377 72.7129 108.466 72.8911 108.644C73.0692 108.821 73.1583 109.046 73.1583 109.317V111.235C73.1583 111.506 73.0692 111.731 72.8911 111.908C72.7129 112.086 72.488 112.175 72.2166 112.175H68.1699C67.8984 112.175 67.6736 112.086 67.4954 111.908C67.3173 111.731 67.2282 111.506 67.2282 111.235V109.317ZM78.4998 109.304C78.4998 109.033 78.5889 108.809 78.767 108.631C78.9452 108.453 79.1699 108.364 79.4415 108.364H87.1274C87.3994 108.364 87.6237 108.453 87.8019 108.631C87.98 108.809 88.0691 109.033 88.0691 109.304V111.235C88.0691 111.506 87.98 111.731 87.8019 111.908C87.6237 112.086 87.3994 112.175 87.1274 112.175H79.4415C79.1699 112.175 78.9452 112.086 78.767 111.908C78.5889 111.731 78.4998 111.506 78.4998 111.235V109.304ZM85.7825 109.304C85.7825 109.033 85.8715 108.809 86.0497 108.631C86.2279 108.453 86.4521 108.364 86.7242 108.364H94.4104C94.6816 108.364 94.9067 108.453 95.0849 108.631C95.263 108.809 95.3521 109.033 95.3521 109.304V111.235C95.3521 111.506 95.263 111.731 95.0849 111.908C94.9067 112.086 94.6816 112.175 94.4104 112.175H86.7242C86.4521 112.175 86.2279 112.086 86.0497 111.908C85.8715 111.731 85.7825 111.506 85.7825 111.235V109.304ZM93.0647 109.304C93.0647 109.033 93.1538 108.809 93.3319 108.631C93.5101 108.453 93.7352 108.364 94.0064 108.364H101.693C101.964 108.364 102.189 108.453 102.367 108.631C102.545 108.809 102.634 109.033 102.634 109.304V111.235C102.634 111.506 102.545 111.731 102.367 111.908C102.189 112.086 101.964 112.175 101.693 112.175H94.0064C93.7352 112.175 93.5101 112.086 93.3319 111.908C93.1538 111.731 93.0647 111.506 93.0647 111.235V109.304ZM107.977 109.304C107.977 109.033 108.067 108.809 108.245 108.631C108.423 108.453 108.648 108.364 108.919 108.364H116.605C116.877 108.364 117.102 108.453 117.28 108.631C117.458 108.809 117.547 109.033 117.547 109.304V111.235C117.547 111.506 117.458 111.731 117.28 111.908C117.102 112.086 116.877 112.175 116.605 112.175H108.919C108.648 112.175 108.423 112.086 108.245 111.908C108.067 111.731 107.977 111.506 107.977 111.235V109.304ZM115.26 109.304C115.26 109.033 115.349 108.809 115.527 108.631C115.705 108.453 115.93 108.364 116.201 108.364H123.888C124.159 108.364 124.384 108.453 124.562 108.631C124.74 108.809 124.829 109.033 124.829 109.304V111.235C124.829 111.506 124.74 111.731 124.562 111.908C124.384 112.086 124.159 112.175 123.888 112.175H116.201C115.93 112.175 115.705 112.086 115.527 111.908C115.349 111.731 115.26 111.506 115.26 111.235V109.304ZM122.542 109.304C122.542 109.033 122.631 108.809 122.809 108.631C122.987 108.453 123.212 108.364 123.484 108.364H131.17C131.442 108.364 131.666 108.453 131.844 108.631C132.022 108.809 132.112 109.033 132.112 109.304V111.235C132.112 111.506 132.022 111.731 131.844 111.908C131.666 112.086 131.442 112.175 131.17 112.175H123.484C123.212 112.175 122.987 112.086 122.809 111.908C122.631 111.731 122.542 111.506 122.542 111.235V109.304ZM129.825 109.304C129.825 109.033 129.914 108.809 130.092 108.631C130.27 108.453 130.495 108.364 130.767 108.364H138.453C138.724 108.364 138.949 108.453 139.127 108.631C139.305 108.809 139.395 109.033 139.395 109.304V111.235C139.395 111.506 139.305 111.731 139.127 111.908C138.949 112.086 138.724 112.175 138.453 112.175H130.767C130.495 112.175 130.27 112.086 130.092 111.908C129.914 111.731 129.825 111.506 129.825 111.235V109.304Z" fill="black"/>
<path d="M31.4873 236.343C31.4873 236.072 31.5764 235.847 31.7545 235.669C31.9327 235.492 32.1575 235.403 32.429 235.403H40.1152C40.3867 235.403 40.6115 235.492 40.7897 235.669C40.9679 235.847 41.0569 236.072 41.0569 236.343V238.274C41.0569 238.544 40.9679 238.769 40.7897 238.947C40.6115 239.125 40.3867 239.214 40.1152 239.214H32.429C32.1575 239.214 31.9327 239.125 31.7545 238.947C31.5764 238.769 31.4873 238.544 31.4873 238.274V236.343ZM38.7697 236.343C38.7697 236.072 38.8588 235.847 39.0369 235.669C39.2151 235.492 39.4399 235.403 39.7114 235.403H47.3976C47.6692 235.403 47.894 235.492 48.0722 235.669C48.2503 235.847 48.3394 236.072 48.3394 236.343V238.274C48.3394 238.544 48.2503 238.769 48.0722 238.947C47.894 239.125 47.6692 239.214 47.3976 239.214H39.7114C39.4399 239.214 39.2151 239.125 39.0369 238.947C38.8588 238.769 38.7697 238.544 38.7697 238.274V236.343ZM46.0521 236.343C46.0521 236.072 46.1412 235.847 46.3194 235.669C46.4975 235.492 46.7224 235.403 46.9938 235.403H54.6801C54.9515 235.403 55.1764 235.492 55.3545 235.669C55.5327 235.847 55.6218 236.072 55.6218 236.343V238.274C55.6218 238.544 55.5327 238.769 55.3545 238.947C55.1764 239.125 54.9515 239.214 54.6801 239.214H46.9938C46.7224 239.214 46.4975 239.125 46.3194 238.947C46.1412 238.769 46.0521 238.544 46.0521 238.274V236.343ZM53.3345 236.343C53.3345 236.072 53.4236 235.847 53.6017 235.669C53.7799 235.492 54.0047 235.403 54.2762 235.403H61.9625C62.234 235.403 62.4588 235.492 62.637 235.669C62.8151 235.847 62.9042 236.072 62.9042 236.343V238.274C62.9042 238.544 62.8151 238.769 62.637 238.947C62.4588 239.125 62.234 239.214 61.9625 239.214H54.2762C54.0047 239.214 53.7799 239.125 53.6017 238.947C53.4236 238.769 53.3345 238.544 53.3345 238.274V236.343ZM60.617 236.343C60.617 236.072 60.706 235.847 60.8842 235.669C61.0624 235.492 61.2872 235.403 61.5587 235.403H69.2449C69.5163 235.403 69.7412 235.492 69.9194 235.669C70.0975 235.847 70.1866 236.072 70.1866 236.343V238.274C70.1866 238.544 70.0975 238.769 69.9194 238.947C69.7412 239.125 69.5163 239.214 69.2449 239.214H61.5587C61.2872 239.214 61.0624 239.125 60.8842 238.947C60.706 238.769 60.617 238.544 60.617 238.274V236.343ZM67.8993 236.343C67.8993 236.072 67.9884 235.847 68.1666 235.669C68.3447 235.492 68.5696 235.403 68.841 235.403H76.5273C76.7988 235.403 77.0237 235.492 77.2018 235.669C77.38 235.847 77.469 236.072 77.469 236.343V238.274C77.469 238.544 77.38 238.769 77.2018 238.947C77.0237 239.125 76.7988 239.214 76.5273 239.214H68.841C68.5696 239.214 68.3447 239.125 68.1666 238.947C67.9884 238.769 67.8993 238.544 67.8993 238.274V236.343ZM75.1818 236.355C75.1818 236.085 75.2709 235.86 75.449 235.682C75.6272 235.504 75.852 235.415 76.1235 235.415H80.1702C80.4417 235.415 80.6665 235.504 80.8447 235.682C81.0228 235.86 81.1119 236.085 81.1119 236.355V238.274C81.1119 238.544 81.0228 238.769 80.8447 238.947C80.6665 239.125 80.4417 239.214 80.1702 239.214H76.1235C75.852 239.214 75.6272 239.125 75.449 238.947C75.2709 238.769 75.1818 238.544 75.1818 238.274V236.355ZM86.4531 236.343C86.4531 236.072 86.5421 235.847 86.7203 235.669C86.8985 235.492 87.1236 235.403 87.3948 235.403H95.081C95.353 235.403 95.5773 235.492 95.7555 235.669C95.9336 235.847 96.0227 236.072 96.0227 236.343V238.274C96.0227 238.544 95.9336 238.769 95.7555 238.947C95.5773 239.125 95.353 239.214 95.081 239.214H87.3948C87.1236 239.214 86.8985 239.125 86.7203 238.947C86.5421 238.769 86.4531 238.544 86.4531 238.274V236.343ZM93.7361 236.343C93.7361 236.072 93.8252 235.847 94.0033 235.669C94.1815 235.492 94.4058 235.403 94.6778 235.403H102.364C102.635 235.403 102.86 235.492 103.038 235.669C103.217 235.847 103.306 236.072 103.306 236.343V238.274C103.306 238.544 103.217 238.769 103.038 238.947C102.86 239.125 102.635 239.214 102.364 239.214H94.6778C94.4058 239.214 94.1815 239.125 94.0033 238.947C93.8252 238.769 93.7361 238.544 93.7361 238.274V236.343ZM101.018 236.343C101.018 236.072 101.107 235.847 101.286 235.669C101.464 235.492 101.689 235.403 101.96 235.403H109.646C109.917 235.403 110.143 235.492 110.321 235.669C110.499 235.847 110.588 236.072 110.588 236.343V238.274C110.588 238.544 110.499 238.769 110.321 238.947C110.143 239.125 109.917 239.214 109.646 239.214H101.96C101.689 239.214 101.464 239.125 101.286 238.947C101.107 238.769 101.018 238.544 101.018 238.274V236.343ZM115.931 236.343C115.931 236.072 116.02 235.847 116.198 235.669C116.376 235.492 116.602 235.403 116.873 235.403H124.559C124.83 235.403 125.055 235.492 125.233 235.669C125.412 235.847 125.501 236.072 125.501 236.343V238.274C125.501 238.544 125.412 238.769 125.233 238.947C125.055 239.125 124.83 239.214 124.559 239.214H116.873C116.602 239.214 116.376 239.125 116.198 238.947C116.02 238.769 115.931 238.544 115.931 238.274V236.343ZM123.213 236.343C123.213 236.072 123.302 235.847 123.481 235.669C123.659 235.492 123.884 235.403 124.155 235.403H131.841C132.112 235.403 132.338 235.492 132.516 235.669C132.694 235.847 132.783 236.072 132.783 236.343V238.274C132.783 238.544 132.694 238.769 132.516 238.947C132.338 239.125 132.112 239.214 131.841 239.214H124.155C123.884 239.214 123.659 239.125 123.481 238.947C123.302 238.769 123.213 238.544 123.213 238.274V236.343ZM130.496 236.343C130.496 236.072 130.585 235.847 130.763 235.669C130.941 235.492 131.166 235.403 131.437 235.403H139.123C139.395 235.403 139.62 235.492 139.798 235.669C139.976 235.847 140.065 236.072 140.065 236.343V238.274C140.065 238.544 139.976 238.769 139.798 238.947C139.62 239.125 139.395 239.214 139.123 239.214H131.437C131.166 239.214 130.941 239.125 130.763 238.947C130.585 238.769 130.496 238.544 130.496 238.274V236.343ZM137.779 236.343C137.779 236.072 137.868 235.847 138.046 235.669C138.224 235.492 138.448 235.403 138.72 235.403H146.406C146.678 235.403 146.903 235.492 147.081 235.669C147.259 235.847 147.348 236.072 147.348 236.343V238.274C147.348 238.544 147.259 238.769 147.081 238.947C146.903 239.125 146.678 239.214 146.406 239.214H138.72C138.448 239.214 138.224 239.125 138.046 238.947C137.868 238.769 137.779 238.544 137.779 238.274V236.343ZM145.061 236.343C145.061 236.072 145.15 235.847 145.328 235.669C145.506 235.492 145.731 235.403 146.002 235.403H153.689C153.96 235.403 154.185 235.492 154.363 235.669C154.541 235.847 154.63 236.072 154.63 236.343V238.274C154.63 238.544 154.541 238.769 154.363 238.947C154.185 239.125 153.96 239.214 153.689 239.214H146.002C145.731 239.214 145.506 239.125 145.328 238.947C145.15 238.769 145.061 238.544 145.061 238.274V236.343ZM152.343 236.343C152.343 236.072 152.432 235.847 152.61 235.669C152.788 235.492 153.013 235.403 153.285 235.403H160.971C161.242 235.403 161.467 235.492 161.645 235.669C161.824 235.847 161.913 236.072 161.913 236.343V238.274C161.913 238.544 161.824 238.769 161.645 238.947C161.467 239.125 161.242 239.214 160.971 239.214H153.285C153.013 239.214 152.788 239.125 152.61 238.947C152.432 238.769 152.343 238.544 152.343 238.274V236.343ZM159.625 236.343C159.625 236.072 159.714 235.847 159.892 235.669C160.071 235.492 160.296 235.403 160.567 235.403H168.253C168.525 235.403 168.749 235.492 168.928 235.669C169.106 235.847 169.195 236.072 169.195 236.343V238.274C169.195 238.544 169.106 238.769 168.928 238.947C168.749 239.125 168.525 239.214 168.253 239.214H160.567C160.296 239.214 160.071 239.125 159.892 238.947C159.714 238.769 159.625 238.544 159.625 238.274V236.343ZM166.908 236.343C166.908 236.072 166.997 235.847 167.175 235.669C167.354 235.492 167.578 235.403 167.85 235.403H175.536C175.807 235.403 176.032 235.492 176.211 235.669C176.389 235.847 176.478 236.072 176.478 236.343V238.274C176.478 238.544 176.389 238.769 176.211 238.947C176.032 239.125 175.807 239.214 175.536 239.214H167.85C167.578 239.214 167.354 239.125 167.175 238.947C166.997 238.769 166.908 238.544 166.908 238.274V236.343ZM174.19 236.343C174.19 236.072 174.279 235.847 174.458 235.669C174.636 235.492 174.861 235.403 175.132 235.403H182.818C183.09 235.403 183.315 235.492 183.493 235.669C183.671 235.847 183.76 236.072 183.76 236.343V238.274C183.76 238.544 183.671 238.769 183.493 238.947C183.315 239.125 183.09 239.214 182.818 239.214H175.132C174.861 239.214 174.636 239.125 174.458 238.947C174.279 238.769 174.19 238.544 174.19 238.274V236.343ZM181.473 236.343C181.473 236.072 181.562 235.847 181.74 235.669C181.918 235.492 182.143 235.403 182.414 235.403H190.101C190.372 235.403 190.597 235.492 190.775 235.669C190.953 235.847 191.042 236.072 191.042 236.343V238.274C191.042 238.544 190.953 238.769 190.775 238.947C190.597 239.125 190.372 239.214 190.101 239.214H182.414C182.143 239.214 181.918 239.125 181.74 238.947C181.562 238.769 181.473 238.544 181.473 238.274V236.343ZM188.755 236.355C188.755 236.085 188.844 235.86 189.022 235.682C189.2 235.504 189.425 235.415 189.697 235.415H193.743C194.015 235.415 194.24 235.504 194.418 235.682C194.596 235.86 194.685 236.085 194.685 236.355V238.274C194.685 238.544 194.596 238.769 194.418 238.947C194.24 239.125 194.015 239.214 193.743 239.214H189.697C189.425 239.214 189.2 239.125 189.022 238.947C188.844 238.769 188.755 238.544 188.755 238.274V236.355ZM200.027 236.343C200.027 236.072 200.116 235.847 200.294 235.669C200.472 235.492 200.697 235.403 200.968 235.403H208.654C208.926 235.403 209.151 235.492 209.329 235.669C209.507 235.847 209.596 236.072 209.596 236.343V238.274C209.596 238.544 209.507 238.769 209.329 238.947C209.151 239.125 208.926 239.214 208.654 239.214H200.968C200.697 239.214 200.472 239.125 200.294 238.947C200.116 238.769 200.027 238.544 200.027 238.274V236.343ZM207.309 236.343C207.309 236.072 207.398 235.847 207.576 235.669C207.754 235.492 207.979 235.403 208.25 235.403H215.937C216.209 235.403 216.434 235.492 216.612 235.669C216.79 235.847 216.879 236.072 216.879 236.343V238.274C216.879 238.544 216.79 238.769 216.612 238.947C216.434 239.125 216.209 239.214 215.937 239.214H208.25C207.979 239.214 207.754 239.125 207.576 238.947C207.398 238.769 207.309 238.544 207.309 238.274V236.343ZM214.592 236.343C214.592 236.072 214.681 235.847 214.859 235.669C215.037 235.492 215.261 235.403 215.533 235.403H223.22C223.491 235.403 223.716 235.492 223.894 235.669C224.072 235.847 224.161 236.072 224.161 236.343V238.274C224.161 238.544 224.072 238.769 223.894 238.947C223.716 239.125 223.491 239.214 223.22 239.214H215.533C215.261 239.214 215.037 239.125 214.859 238.947C214.681 238.769 214.592 238.544 214.592 238.274V236.343ZM229.505 236.343C229.505 236.072 229.594 235.847 229.772 235.669C229.95 235.492 230.174 235.403 230.446 235.403H238.132C238.404 235.403 238.629 235.492 238.807 235.669C238.985 235.847 239.074 236.072 239.074 236.343V238.274C239.074 238.544 238.985 238.769 238.807 238.947C238.629 239.125 238.404 239.214 238.132 239.214H230.446C230.174 239.214 229.95 239.125 229.772 238.947C229.594 238.769 229.505 238.544 229.505 238.274V236.343ZM236.787 236.343C236.787 236.072 236.876 235.847 237.054 235.669C237.232 235.492 237.457 235.403 237.728 235.403H245.415C245.686 235.403 245.911 235.492 246.089 235.669C246.267 235.847 246.356 236.072 246.356 236.343V238.274C246.356 238.544 246.267 238.769 246.089 238.947C245.911 239.125 245.686 239.214 245.415 239.214H237.728C237.457 239.214 237.232 239.125 237.054 238.947C236.876 238.769 236.787 238.544 236.787 238.274V236.343ZM244.069 236.343C244.069 236.072 244.158 235.847 244.336 235.669C244.514 235.492 244.739 235.403 245.011 235.403H252.697C252.969 235.403 253.193 235.492 253.371 235.669C253.549 235.847 253.639 236.072 253.639 236.343V238.274C253.639 238.544 253.549 238.769 253.371 238.947C253.193 239.125 252.969 239.214 252.697 239.214H245.011C244.739 239.214 244.514 239.125 244.336 238.947C244.158 238.769 244.069 238.544 244.069 238.274V236.343ZM251.351 236.343C251.351 236.072 251.44 235.847 251.618 235.669C251.797 235.492 252.022 235.403 252.293 235.403H259.979C260.251 235.403 260.476 235.492 260.654 235.669C260.833 235.847 260.922 236.072 260.922 236.343V238.274C260.922 238.544 260.833 238.769 260.654 238.947C260.476 239.125 260.251 239.214 259.979 239.214H252.293C252.022 239.214 251.797 239.125 251.618 238.947C251.44 238.769 251.351 238.544 251.351 238.274V236.343ZM266.264 236.343C266.264 236.072 266.353 235.847 266.531 235.669C266.709 235.492 266.934 235.403 267.206 235.403H274.892C275.164 235.403 275.389 235.492 275.567 235.669C275.745 235.847 275.834 236.072 275.834 236.343V238.274C275.834 238.544 275.745 238.769 275.567 238.947C275.389 239.125 275.164 239.214 274.892 239.214H267.206C266.934 239.214 266.709 239.125 266.531 238.947C266.353 238.769 266.264 238.544 266.264 238.274V236.343ZM273.547 236.343C273.547 236.072 273.636 235.847 273.814 235.669C273.992 235.492 274.217 235.403 274.489 235.403H282.175C282.446 235.403 282.671 235.492 282.849 235.669C283.028 235.847 283.117 236.072 283.117 236.343V238.274C283.117 238.544 283.028 238.769 282.849 238.947C282.671 239.125 282.446 239.214 282.175 239.214H274.489C274.217 239.214 273.992 239.125 273.814 238.947C273.636 238.769 273.547 238.544 273.547 238.274V236.343ZM280.829 236.355C280.829 236.085 280.918 235.86 281.096 235.682C281.275 235.504 281.5 235.415 281.771 235.415H285.818C286.089 235.415 286.314 235.504 286.492 235.682C286.67 235.86 286.759 236.085 286.759 236.355V238.274C286.759 238.544 286.67 238.769 286.492 238.947C286.314 239.125 286.089 239.214 285.818 239.214H281.771C281.5 239.214 281.275 239.125 281.096 238.947C280.918 238.769 280.829 238.544 280.829 238.274V236.355ZM284.47 236.343C284.47 236.072 284.559 235.847 284.738 235.669C284.916 235.492 285.141 235.403 285.412 235.403H293.098C293.369 235.403 293.595 235.492 293.773 235.669C293.951 235.847 294.04 236.072 294.04 236.343V238.274C294.04 238.544 293.951 238.769 293.773 238.947C293.595 239.125 293.369 239.214 293.098 239.214H285.412C285.141 239.214 284.916 239.125 284.738 238.947C284.559 238.769 284.47 238.544 284.47 238.274V236.343ZM291.753 236.355C291.753 236.085 291.842 235.86 292.02 235.682C292.198 235.504 292.423 235.415 292.694 235.415H296.741C297.013 235.415 297.237 235.504 297.415 235.682C297.594 235.86 297.683 236.085 297.683 236.355V238.274C297.683 238.544 297.594 238.769 297.415 238.947C297.237 239.125 297.013 239.214 296.741 239.214H292.694C292.423 239.214 292.198 239.125 292.02 238.947C291.842 238.769 291.753 238.544 291.753 238.274V236.355ZM31.4873 251.441C31.4873 251.17 31.5764 250.946 31.7545 250.768C31.9327 250.59 32.1575 250.501 32.429 250.501H36.4757C36.7472 250.501 36.972 250.59 37.1502 250.768C37.3283 250.946 37.4174 251.17 37.4174 251.441V253.359C37.4174 253.63 37.3283 253.855 37.1502 254.033C36.972 254.211 36.7472 254.3 36.4757 254.3H32.429C32.1575 254.3 31.9327 254.211 31.7545 254.033C31.5764 253.855 31.4873 253.63 31.4873 253.359V251.441ZM35.1285 251.429C35.1285 251.158 35.2176 250.933 35.3957 250.755C35.5739 250.577 35.7987 250.488 36.0702 250.488H43.7564C44.028 250.488 44.2527 250.577 44.4309 250.755C44.609 250.933 44.6981 251.158 44.6981 251.429V253.359C44.6981 253.63 44.609 253.855 44.4309 254.033C44.2527 254.211 44.028 254.3 43.7564 254.3H36.0702C35.7987 254.3 35.5739 254.211 35.3957 254.033C35.2176 253.855 35.1285 253.63 35.1285 253.359V251.429ZM42.4109 251.429C42.4109 251.158 42.5 250.933 42.6782 250.755C42.8563 250.577 43.0811 250.488 43.3526 250.488H51.0389C51.3103 250.488 51.5352 250.577 51.7133 250.755C51.8915 250.933 51.9806 251.158 51.9806 251.429V253.359C51.9806 253.63 51.8915 253.855 51.7133 254.033C51.5352 254.211 51.3103 254.3 51.0389 254.3H43.3526C43.0811 254.3 42.8563 254.211 42.6782 254.033C42.5 253.855 42.4109 253.63 42.4109 253.359V251.429ZM49.6933 251.429C49.6933 251.158 49.7824 250.933 49.9606 250.755C50.1387 250.577 50.3636 250.488 50.635 250.488H58.3213C58.5928 250.488 58.8176 250.577 58.9957 250.755C59.1739 250.933 59.263 251.158 59.263 251.429V253.359C59.263 253.63 59.1739 253.855 58.9957 254.033C58.8176 254.211 58.5928 254.3 58.3213 254.3H50.635C50.3636 254.3 50.1387 254.211 49.9606 254.033C49.7824 253.855 49.6933 253.63 49.6933 253.359V251.429ZM64.6061 251.441C64.6061 251.17 64.6952 250.946 64.8733 250.768C65.0515 250.59 65.2763 250.501 65.5478 250.501H69.5945C69.8661 250.501 70.0908 250.59 70.269 250.768C70.4472 250.946 70.5362 251.17 70.5362 251.441V253.359C70.5362 253.63 70.4472 253.855 70.269 254.033C70.0908 254.211 69.8661 254.3 69.5945 254.3H65.5478C65.2763 254.3 65.0515 254.211 64.8733 254.033C64.6952 253.855 64.6061 253.63 64.6061 253.359V251.441ZM68.2473 251.429C68.2473 251.158 68.3364 250.933 68.5145 250.755C68.6927 250.577 68.9175 250.488 69.189 250.488H76.8752C77.1468 250.488 77.3716 250.577 77.5498 250.755C77.7279 250.933 77.817 251.158 77.817 251.429V253.359C77.817 253.63 77.7279 253.855 77.5498 254.033C77.3716 254.211 77.1468 254.3 76.8752 254.3H69.189C68.9175 254.3 68.6927 254.211 68.5145 254.033C68.3364 253.855 68.2473 253.63 68.2473 253.359V251.429ZM75.5297 251.429C75.5297 251.158 75.6188 250.933 75.797 250.755C75.9751 250.577 76.2 250.488 76.4714 250.488H84.1577C84.4289 250.488 84.654 250.577 84.8321 250.755C85.0103 250.933 85.0994 251.158 85.0994 251.429V253.359C85.0994 253.63 85.0103 253.855 84.8321 254.033C84.654 254.211 84.4289 254.3 84.1577 254.3H76.4714C76.2 254.3 75.9751 254.211 75.797 254.033C75.6188 253.855 75.5297 253.63 75.5297 253.359V251.429ZM82.8121 251.441C82.8121 251.17 82.9012 250.946 83.0794 250.768C83.2575 250.59 83.4824 250.501 83.7537 250.501H87.8004C88.0724 250.501 88.2967 250.59 88.4748 250.768C88.653 250.946 88.7421 251.17 88.7421 251.441V253.359C88.7421 253.63 88.653 253.855 88.4748 254.033C88.2967 254.211 88.0724 254.3 87.8004 254.3H83.7537C83.4824 254.3 83.2575 254.211 83.0794 254.033C82.9012 253.855 82.8121 253.63 82.8121 253.359V251.441ZM94.0836 251.441C94.0836 251.17 94.1727 250.946 94.3509 250.768C94.529 250.59 94.7541 250.501 95.0253 250.501H99.0721C99.3433 250.501 99.5684 250.59 99.7465 250.768C99.9247 250.946 100.014 251.17 100.014 251.441V253.359C100.014 253.63 99.9247 253.855 99.7465 254.033C99.5684 254.211 99.3433 254.3 99.0721 254.3H95.0253C94.7541 254.3 94.529 254.211 94.3509 254.033C94.1727 253.855 94.0836 253.63 94.0836 253.359V251.441ZM97.7248 251.429C97.7248 251.158 97.8138 250.933 97.992 250.755C98.1702 250.577 98.3952 250.488 98.6664 250.488H106.353C106.625 250.488 106.849 250.577 107.027 250.755C107.205 250.933 107.294 251.158 107.294 251.429V253.359C107.294 253.63 107.205 253.855 107.027 254.033C106.849 254.211 106.625 254.3 106.353 254.3H98.6664C98.3952 254.3 98.1702 254.211 97.992 254.033C97.8138 253.855 97.7248 253.63 97.7248 253.359V251.429ZM105.007 251.429C105.007 251.158 105.096 250.933 105.274 250.755C105.452 250.577 105.677 250.488 105.949 250.488H113.635C113.907 250.488 114.132 250.577 114.31 250.755C114.488 250.933 114.577 251.158 114.577 251.429V253.359C114.577 253.63 114.488 253.855 114.31 254.033C114.132 254.211 113.907 254.3 113.635 254.3H105.949C105.677 254.3 105.452 254.211 105.274 254.033C105.096 253.855 105.007 253.63 105.007 253.359V251.429ZM112.29 251.441C112.29 251.17 112.379 250.946 112.557 250.768C112.735 250.59 112.96 250.501 113.232 250.501H117.278C117.55 250.501 117.775 250.59 117.953 250.768C118.131 250.946 118.22 251.17 118.22 251.441V253.359C118.22 253.63 118.131 253.855 117.953 254.033C117.775 254.211 117.55 254.3 117.278 254.3H113.232C112.96 254.3 112.735 254.211 112.557 254.033C112.379 253.855 112.29 253.63 112.29 253.359V251.441ZM115.931 251.441C115.931 251.17 116.02 250.946 116.198 250.768C116.376 250.59 116.602 250.501 116.873 250.501H120.92C121.191 250.501 121.416 250.59 121.594 250.768C121.772 250.946 121.861 251.17 121.861 251.441V253.359C121.861 253.63 121.772 253.855 121.594 254.033C121.416 254.211 121.191 254.3 120.92 254.3H116.873C116.602 254.3 116.376 254.211 116.198 254.033C116.02 253.855 115.931 253.63 115.931 253.359V251.441ZM119.572 251.429C119.572 251.158 119.661 250.933 119.839 250.755C120.018 250.577 120.243 250.488 120.514 250.488H128.2C128.471 250.488 128.696 250.577 128.875 250.755C129.053 250.933 129.142 251.158 129.142 251.429V253.359C129.142 253.63 129.053 253.855 128.875 254.033C128.696 254.211 128.471 254.3 128.2 254.3H120.514C120.243 254.3 120.018 254.211 119.839 254.033C119.661 253.855 119.572 253.63 119.572 253.359V251.429ZM126.854 251.441C126.854 251.17 126.943 250.946 127.122 250.768C127.3 250.59 127.525 250.501 127.796 250.501H131.843C132.115 250.501 132.339 250.59 132.517 250.768C132.695 250.946 132.785 251.17 132.785 251.441V253.359C132.785 253.63 132.695 253.855 132.517 254.033C132.339 254.211 132.115 254.3 131.843 254.3H127.796C127.525 254.3 127.3 254.211 127.122 254.033C126.943 253.855 126.854 253.63 126.854 253.359V251.441ZM130.496 251.441C130.496 251.17 130.585 250.946 130.763 250.768C130.941 250.59 131.166 250.501 131.437 250.501H135.484C135.756 250.501 135.98 250.59 136.158 250.768C136.337 250.946 136.426 251.17 136.426 251.441V253.359C136.426 253.63 136.337 253.855 136.158 254.033C135.98 254.211 135.756 254.3 135.484 254.3H131.437C131.166 254.3 130.941 254.211 130.763 254.033C130.585 253.855 130.496 253.63 130.496 253.359V251.441ZM141.767 251.429C141.767 251.158 141.856 250.933 142.034 250.755C142.213 250.577 142.438 250.488 142.709 250.488H150.395C150.667 250.488 150.891 250.577 151.07 250.755C151.248 250.933 151.337 251.158 151.337 251.429V253.359C151.337 253.63 151.248 253.855 151.07 254.033C150.891 254.211 150.667 254.3 150.395 254.3H142.709C142.438 254.3 142.213 254.211 142.034 254.033C141.856 253.855 141.767 253.63 141.767 253.359V251.429ZM149.049 251.429C149.049 251.158 149.138 250.933 149.317 250.755C149.495 250.577 149.72 250.488 149.991 250.488H157.677C157.949 250.488 158.174 250.577 158.353 250.755C158.531 250.933 158.62 251.158 158.62 251.429V253.359C158.62 253.63 158.531 253.855 158.353 254.033C158.174 254.211 157.949 254.3 157.677 254.3H149.991C149.72 254.3 149.495 254.211 149.317 254.033C149.138 253.855 149.049 253.63 149.049 253.359V251.429ZM156.332 251.441C156.332 251.17 156.422 250.946 156.6 250.768C156.778 250.59 157.002 250.501 157.274 250.501H161.321C161.592 250.501 161.817 250.59 161.995 250.768C162.173 250.946 162.263 251.17 162.263 251.441V253.359C162.263 253.63 162.173 253.855 161.995 254.033C161.817 254.211 161.592 254.3 161.321 254.3H157.274C157.002 254.3 156.778 254.211 156.6 254.033C156.422 253.855 156.332 253.63 156.332 253.359V251.441ZM159.974 251.429C159.974 251.158 160.063 250.933 160.241 250.755C160.419 250.577 160.644 250.488 160.915 250.488H168.601C168.873 250.488 169.098 250.577 169.276 250.755C169.454 250.933 169.543 251.158 169.543 251.429V253.359C169.543 253.63 169.454 253.855 169.276 254.033C169.098 254.211 168.873 254.3 168.601 254.3H160.915C160.644 254.3 160.419 254.211 160.241 254.033C160.063 253.855 159.974 253.63 159.974 253.359V251.429ZM167.256 251.441C167.256 251.17 167.345 250.946 167.523 250.768C167.701 250.59 167.926 250.501 168.197 250.501H172.244C172.515 250.501 172.74 250.59 172.919 250.768C173.097 250.946 173.186 251.17 173.186 251.441V253.359C173.186 253.63 173.097 253.855 172.919 254.033C172.74 254.211 172.515 254.3 172.244 254.3H168.197C167.926 254.3 167.701 254.211 167.523 254.033C167.345 253.855 167.256 253.63 167.256 253.359V251.441ZM170.897 251.441C170.897 251.17 170.986 250.946 171.164 250.768C171.342 250.59 171.567 250.501 171.839 250.501H175.885C176.157 250.501 176.382 250.59 176.56 250.768C176.738 250.946 176.827 251.17 176.827 251.441V253.359C176.827 253.63 176.738 253.855 176.56 254.033C176.382 254.211 176.157 254.3 175.885 254.3H171.839C171.567 254.3 171.342 254.211 171.164 254.033C170.986 253.855 170.897 253.63 170.897 253.359V251.441ZM174.538 251.429C174.538 251.158 174.627 250.933 174.805 250.755C174.983 250.577 175.208 250.488 175.48 250.488H183.166C183.438 250.488 183.662 250.577 183.84 250.755C184.019 250.933 184.108 251.158 184.108 251.429V253.359C184.108 253.63 184.019 253.855 183.84 254.033C183.662 254.211 183.438 254.3 183.166 254.3H175.48C175.208 254.3 174.983 254.211 174.805 254.033C174.627 253.855 174.538 253.63 174.538 253.359V251.429ZM181.821 251.429C181.821 251.158 181.91 250.933 182.088 250.755C182.266 250.577 182.491 250.488 182.763 250.488H190.449C190.72 250.488 190.945 250.577 191.123 250.755C191.302 250.933 191.391 251.158 191.391 251.429V253.359C191.391 253.63 191.302 253.855 191.123 254.033C190.945 254.211 190.72 254.3 190.449 254.3H182.763C182.491 254.3 182.266 254.211 182.088 254.033C181.91 253.855 181.821 253.63 181.821 253.359V251.429ZM189.103 251.441C189.103 251.17 189.192 250.946 189.37 250.768C189.549 250.59 189.774 250.501 190.045 250.501H194.092C194.363 250.501 194.588 250.59 194.766 250.768C194.944 250.946 195.033 251.17 195.033 251.441V253.359C195.033 253.63 194.944 253.855 194.766 254.033C194.588 254.211 194.363 254.3 194.092 254.3H190.045C189.774 254.3 189.549 254.211 189.37 254.033C189.192 253.855 189.103 253.63 189.103 253.359V251.441ZM200.375 251.441C200.375 251.17 200.464 250.946 200.642 250.768C200.82 250.59 201.045 250.501 201.317 250.501H205.363C205.635 250.501 205.86 250.59 206.038 250.768C206.216 250.946 206.305 251.17 206.305 251.441V253.359C206.305 253.63 206.216 253.855 206.038 254.033C205.86 254.211 205.635 254.3 205.363 254.3H201.317C201.045 254.3 200.82 254.211 200.642 254.033C200.464 253.855 200.375 253.63 200.375 253.359V251.441ZM204.016 251.441C204.016 251.17 204.105 250.946 204.283 250.768C204.461 250.59 204.686 250.501 204.958 250.501H209.004C209.276 250.501 209.501 250.59 209.679 250.768C209.857 250.946 209.946 251.17 209.946 251.441V253.359C209.946 253.63 209.857 253.855 209.679 254.033C209.501 254.211 209.276 254.3 209.004 254.3H204.958C204.686 254.3 204.461 254.211 204.283 254.033C204.105 253.855 204.016 253.63 204.016 253.359V251.441ZM207.657 251.429C207.657 251.158 207.746 250.933 207.924 250.755C208.102 250.577 208.328 250.488 208.599 250.488H216.285C216.556 250.488 216.781 250.577 216.959 250.755C217.138 250.933 217.227 251.158 217.227 251.429V253.359C217.227 253.63 217.138 253.855 216.959 254.033C216.781 254.211 216.556 254.3 216.285 254.3H208.599C208.328 254.3 208.102 254.211 207.924 254.033C207.746 253.855 207.657 253.63 207.657 253.359V251.429ZM214.939 251.429C214.939 251.158 215.028 250.933 215.207 250.755C215.385 250.577 215.61 250.488 215.881 250.488H223.567C223.839 250.488 224.064 250.577 224.242 250.755C224.42 250.933 224.509 251.158 224.509 251.429V253.359C224.509 253.63 224.42 253.855 224.242 254.033C224.064 254.211 223.839 254.3 223.567 254.3H215.881C215.61 254.3 215.385 254.211 215.207 254.033C215.028 253.855 214.939 253.63 214.939 253.359V251.429ZM222.222 251.441C222.222 251.17 222.311 250.946 222.489 250.768C222.667 250.59 222.892 250.501 223.163 250.501H227.211C227.482 250.501 227.707 250.59 227.885 250.768C228.063 250.946 228.152 251.17 228.152 251.441V253.359C228.152 253.63 228.063 253.855 227.885 254.033C227.707 254.211 227.482 254.3 227.211 254.3H223.163C222.892 254.3 222.667 254.211 222.489 254.033C222.311 253.855 222.222 253.63 222.222 253.359V251.441ZM225.863 251.441C225.863 251.17 225.952 250.946 226.131 250.768C226.309 250.59 226.533 250.501 226.805 250.501H230.852C231.123 250.501 231.348 250.59 231.526 250.768C231.704 250.946 231.794 251.17 231.794 251.441V253.359C231.794 253.63 231.704 253.855 231.526 254.033C231.348 254.211 231.123 254.3 230.852 254.3H226.805C226.533 254.3 226.309 254.211 226.131 254.033C225.952 253.855 225.863 253.63 225.863 253.359V251.441ZM229.505 251.441C229.505 251.17 229.594 250.946 229.772 250.768C229.95 250.59 230.174 250.501 230.446 250.501H234.493C234.764 250.501 234.989 250.59 235.167 250.768C235.346 250.946 235.435 251.17 235.435 251.441V253.359C235.435 253.63 235.346 253.855 235.167 254.033C234.989 254.211 234.764 254.3 234.493 254.3H230.446C230.174 254.3 229.95 254.211 229.772 254.033C229.594 253.855 229.505 253.63 229.505 253.359V251.441ZM233.146 251.429C233.146 251.158 233.235 250.933 233.413 250.755C233.591 250.577 233.816 250.488 234.087 250.488H241.774C242.045 250.488 242.27 250.577 242.448 250.755C242.626 250.933 242.715 251.158 242.715 251.429V253.359C242.715 253.63 242.626 253.855 242.448 254.033C242.27 254.211 242.045 254.3 241.774 254.3H234.087C233.816 254.3 233.591 254.211 233.413 254.033C233.235 253.855 233.146 253.63 233.146 253.359V251.429ZM240.428 251.429C240.428 251.158 240.517 250.933 240.695 250.755C240.873 250.577 241.098 250.488 241.37 250.488H249.056C249.327 250.488 249.552 250.577 249.73 250.755C249.908 250.933 249.997 251.158 249.997 251.429V253.359C249.997 253.63 249.908 253.855 249.73 254.033C249.552 254.211 249.327 254.3 249.056 254.3H241.37C241.098 254.3 240.873 254.211 240.695 254.033C240.517 253.855 240.428 253.63 240.428 253.359V251.429ZM247.71 251.441C247.71 251.17 247.799 250.946 247.977 250.768C248.155 250.59 248.381 250.501 248.652 250.501H252.699C252.971 250.501 253.195 250.59 253.373 250.768C253.551 250.946 253.64 251.17 253.64 251.441V253.359C253.64 253.63 253.551 253.855 253.373 254.033C253.195 254.211 252.971 254.3 252.699 254.3H248.652C248.381 254.3 248.155 254.211 247.977 254.033C247.799 253.855 247.71 253.63 247.71 253.359V251.441ZM31.4873 266.527C31.4873 266.256 31.5764 266.032 31.7545 265.854C31.9327 265.676 32.1575 265.587 32.429 265.587H36.4757C36.7472 265.587 36.972 265.676 37.1502 265.854C37.3283 266.032 37.4174 266.256 37.4174 266.527V268.445C37.4174 268.716 37.3283 268.941 37.1502 269.119C36.972 269.296 36.7472 269.385 36.4757 269.385H32.429C32.1575 269.385 31.9327 269.296 31.7545 269.119C31.5764 268.941 31.4873 268.716 31.4873 268.445V266.527ZM35.1285 266.527C35.1285 266.256 35.2176 266.032 35.3957 265.854C35.5739 265.676 35.7987 265.587 36.0702 265.587H40.1169C40.3884 265.587 40.6132 265.676 40.7914 265.854C40.9695 266.032 41.0586 266.256 41.0586 266.527V268.445C41.0586 268.716 40.9695 268.941 40.7914 269.119C40.6132 269.296 40.3884 269.385 40.1169 269.385H36.0702C35.7987 269.385 35.5739 269.296 35.3957 269.119C35.2176 268.941 35.1285 268.716 35.1285 268.445V266.527ZM38.7697 266.514C38.7697 266.244 38.8588 266.019 39.0369 265.841C39.2151 265.663 39.4399 265.574 39.7114 265.574H47.3976C47.6692 265.574 47.894 265.663 48.0722 265.841C48.2503 266.019 48.3394 266.244 48.3394 266.514V268.445C48.3394 268.716 48.2503 268.941 48.0722 269.119C47.894 269.296 47.6692 269.385 47.3976 269.385H39.7114C39.4399 269.385 39.2151 269.296 39.0369 269.119C38.8588 268.941 38.7697 268.716 38.7697 268.445V266.514ZM46.0521 266.514C46.0521 266.244 46.1412 266.019 46.3194 265.841C46.4975 265.663 46.7224 265.574 46.9938 265.574H54.6801C54.9515 265.574 55.1764 265.663 55.3545 265.841C55.5327 266.019 55.6218 266.244 55.6218 266.514V268.445C55.6218 268.716 55.5327 268.941 55.3545 269.119C55.1764 269.296 54.9515 269.385 54.6801 269.385H46.9938C46.7224 269.385 46.4975 269.296 46.3194 269.119C46.1412 268.941 46.0521 268.716 46.0521 268.445V266.514ZM53.3345 266.527C53.3345 266.256 53.4236 266.032 53.6017 265.854C53.7799 265.676 54.0047 265.587 54.2762 265.587H58.323C58.5945 265.587 58.8193 265.676 58.9975 265.854C59.1756 266.032 59.2647 266.256 59.2647 266.527V268.445C59.2647 268.716 59.1756 268.941 58.9975 269.119C58.8193 269.296 58.5945 269.385 58.323 269.385H54.2762C54.0047 269.385 53.7799 269.296 53.6017 269.119C53.4236 268.941 53.3345 268.716 53.3345 268.445V266.527ZM56.9758 266.527C56.9758 266.256 57.0648 266.032 57.243 265.854C57.4212 265.676 57.6459 265.587 57.9175 265.587H61.9642C62.2356 265.587 62.4605 265.676 62.6387 265.854C62.8168 266.032 62.9059 266.256 62.9059 266.527V268.445C62.9059 268.716 62.8168 268.941 62.6387 269.119C62.4605 269.296 62.2356 269.385 61.9642 269.385H57.9175C57.6459 269.385 57.4212 269.296 57.243 269.119C57.0648 268.941 56.9758 268.716 56.9758 268.445V266.527ZM60.617 266.527C60.617 266.256 60.706 266.032 60.8842 265.854C61.0624 265.676 61.2872 265.587 61.5587 265.587H65.6054C65.8768 265.587 66.1017 265.676 66.2798 265.854C66.458 266.032 66.5471 266.256 66.5471 266.527V268.445C66.5471 268.716 66.458 268.941 66.2798 269.119C66.1017 269.296 65.8768 269.385 65.6054 269.385H61.5587C61.2872 269.385 61.0624 269.296 60.8842 269.119C60.706 268.941 60.617 268.716 60.617 268.445V266.527ZM64.2581 266.514C64.2581 266.244 64.3472 266.019 64.5254 265.841C64.7035 265.663 64.9284 265.574 65.1998 265.574H72.8861C73.1576 265.574 73.3824 265.663 73.5605 265.841C73.7387 266.019 73.8278 266.244 73.8278 266.514V268.445C73.8278 268.716 73.7387 268.941 73.5605 269.119C73.3824 269.296 73.1576 269.385 72.8861 269.385H65.1998C64.9284 269.385 64.7035 269.296 64.5254 269.119C64.3472 268.941 64.2581 268.716 64.2581 268.445V266.514ZM86.8014 266.514C86.8014 266.244 86.8905 266.019 87.0687 265.841C87.2468 265.663 87.4719 265.574 87.7431 265.574H95.4294C95.7006 265.574 95.9257 265.663 96.1038 265.841C96.282 266.019 96.3711 266.244 96.3711 266.514V268.445C96.3711 268.716 96.282 268.941 96.1038 269.119C95.9257 269.296 95.7006 269.385 95.4294 269.385H87.7431C87.4719 269.385 87.2468 269.296 87.0687 269.119C86.8905 268.941 86.8014 268.716 86.8014 268.445V266.514ZM94.0836 266.527C94.0836 266.256 94.1727 266.032 94.3509 265.854C94.529 265.676 94.7541 265.587 95.0253 265.587H99.0721C99.3433 265.587 99.5684 265.676 99.7465 265.854C99.9247 266.032 100.014 266.256 100.014 266.527V268.445C100.014 268.716 99.9247 268.941 99.7465 269.119C99.5684 269.296 99.3433 269.385 99.0721 269.385H95.0253C94.7541 269.385 94.529 269.296 94.3509 269.119C94.1727 268.941 94.0836 268.716 94.0836 268.445V266.527ZM97.7248 266.527C97.7248 266.256 97.8138 266.032 97.992 265.854C98.1702 265.676 98.3952 265.587 98.6664 265.587H102.713C102.985 265.587 103.209 265.676 103.388 265.854C103.566 266.032 103.655 266.256 103.655 266.527V268.445C103.655 268.716 103.566 268.941 103.388 269.119C103.209 269.296 102.985 269.385 102.713 269.385H98.6664C98.3952 269.385 98.1702 269.296 97.992 269.119C97.8138 268.941 97.7248 268.716 97.7248 268.445V266.527ZM101.366 266.527C101.366 266.256 101.455 266.032 101.633 265.854C101.811 265.676 102.036 265.587 102.308 265.587H106.354C106.626 265.587 106.851 265.676 107.029 265.854C107.207 266.032 107.296 266.256 107.296 266.527V268.445C107.296 268.716 107.207 268.941 107.029 269.119C106.851 269.296 106.626 269.385 106.354 269.385H102.308C102.036 269.385 101.811 269.296 101.633 269.119C101.455 268.941 101.366 268.716 101.366 268.445V266.527ZM105.007 266.514C105.007 266.244 105.096 266.019 105.274 265.841C105.452 265.663 105.677 265.574 105.949 265.574H113.635C113.907 265.574 114.132 265.663 114.31 265.841C114.488 266.019 114.577 266.244 114.577 266.514V268.445C114.577 268.716 114.488 268.941 114.31 269.119C114.132 269.296 113.907 269.385 113.635 269.385H105.949C105.677 269.385 105.452 269.296 105.274 269.119C105.096 268.941 105.007 268.716 105.007 268.445V266.514ZM112.29 266.514C112.29 266.244 112.379 266.019 112.557 265.841C112.735 265.663 112.96 265.574 113.232 265.574H120.918C121.189 265.574 121.414 265.663 121.592 265.841C121.771 266.019 121.86 266.244 121.86 266.514V268.445C121.86 268.716 121.771 268.941 121.592 269.119C121.414 269.296 121.189 269.385 120.918 269.385H113.232C112.96 269.385 112.735 269.296 112.557 269.119C112.379 268.941 112.29 268.716 112.29 268.445V266.514ZM119.572 266.527C119.572 266.256 119.661 266.032 119.839 265.854C120.018 265.676 120.243 265.587 120.514 265.587H124.561C124.832 265.587 125.057 265.676 125.235 265.854C125.413 266.032 125.502 266.256 125.502 266.527V268.445C125.502 268.716 125.413 268.941 125.235 269.119C125.057 269.296 124.832 269.385 124.561 269.385H120.514C120.243 269.385 120.018 269.296 119.839 269.119C119.661 268.941 119.572 268.716 119.572 268.445V266.527ZM123.213 266.514C123.213 266.244 123.302 266.019 123.481 265.841C123.659 265.663 123.884 265.574 124.155 265.574H131.841C132.112 265.574 132.338 265.663 132.516 265.841C132.694 266.019 132.783 266.244 132.783 266.514V268.445C132.783 268.716 132.694 268.941 132.516 269.119C132.338 269.296 132.112 269.385 131.841 269.385H124.155C123.884 269.385 123.659 269.296 123.481 269.119C123.302 268.941 123.213 268.716 123.213 268.445V266.514ZM130.496 266.527C130.496 266.256 130.585 266.032 130.763 265.854C130.941 265.676 131.166 265.587 131.437 265.587H135.484C135.756 265.587 135.98 265.676 136.158 265.854C136.337 266.032 136.426 266.256 136.426 266.527V268.445C136.426 268.716 136.337 268.941 136.158 269.119C135.98 269.296 135.756 269.385 135.484 269.385H131.437C131.166 269.385 130.941 269.296 130.763 269.119C130.585 268.941 130.496 268.716 130.496 268.445V266.527ZM134.137 266.527C134.137 266.256 134.226 266.032 134.404 265.854C134.582 265.676 134.807 265.587 135.078 265.587H139.126C139.397 265.587 139.622 265.676 139.8 265.854C139.978 266.032 140.068 266.256 140.068 266.527V268.445C140.068 268.716 139.978 268.941 139.8 269.119C139.622 269.296 139.397 269.385 139.126 269.385H135.078C134.807 269.385 134.582 269.296 134.404 269.119C134.226 268.941 134.137 268.716 134.137 268.445V266.527ZM145.408 266.527C145.408 266.256 145.497 266.032 145.676 265.854C145.854 265.676 146.079 265.587 146.35 265.587H150.397C150.669 265.587 150.893 265.676 151.071 265.854C151.249 266.032 151.338 266.256 151.338 266.527V268.445C151.338 268.716 151.249 268.941 151.071 269.119C150.893 269.296 150.669 269.385 150.397 269.385H146.35C146.079 269.385 145.854 269.296 145.676 269.119C145.497 268.941 145.408 268.716 145.408 268.445V266.527ZM156.68 266.514C156.68 266.244 156.769 266.019 156.947 265.841C157.125 265.663 157.35 265.574 157.622 265.574H165.308C165.58 265.574 165.804 265.663 165.982 265.841C166.161 266.019 166.25 266.244 166.25 266.514V268.445C166.25 268.716 166.161 268.941 165.982 269.119C165.804 269.296 165.58 269.385 165.308 269.385H157.622C157.35 269.385 157.125 269.296 156.947 269.119C156.769 268.941 156.68 268.716 156.68 268.445V266.514ZM163.962 266.514C163.962 266.244 164.051 266.019 164.229 265.841C164.408 265.663 164.633 265.574 164.904 265.574H172.59C172.862 265.574 173.087 265.663 173.265 265.841C173.444 266.019 173.533 266.244 173.533 266.514V268.445C173.533 268.716 173.444 268.941 173.265 269.119C173.087 269.296 172.862 269.385 172.59 269.385H164.904C164.633 269.385 164.408 269.296 164.229 269.119C164.051 268.941 163.962 268.716 163.962 268.445V266.514ZM171.245 266.527C171.245 266.256 171.334 266.032 171.512 265.854C171.691 265.676 171.915 265.587 172.187 265.587H176.234C176.505 265.587 176.73 265.676 176.908 265.854C177.086 266.032 177.175 266.256 177.175 266.527V268.445C177.175 268.716 177.086 268.941 176.908 269.119C176.73 269.296 176.505 269.385 176.234 269.385H172.187C171.915 269.385 171.691 269.296 171.512 269.119C171.334 268.941 171.245 268.716 171.245 268.445V266.527ZM174.886 266.527C174.886 266.256 174.975 266.032 175.154 265.854C175.332 265.676 175.557 265.587 175.828 265.587H179.875C180.146 265.587 180.371 265.676 180.549 265.854C180.727 266.032 180.816 266.256 180.816 266.527V268.445C180.816 268.716 180.727 268.941 180.549 269.119C180.371 269.296 180.146 269.385 179.875 269.385H175.828C175.557 269.385 175.332 269.296 175.154 269.119C174.975 268.941 174.886 268.716 174.886 268.445V266.527ZM178.527 266.527C178.527 266.256 178.617 266.032 178.795 265.854C178.973 265.676 179.198 265.587 179.469 265.587H183.516C183.787 265.587 184.012 265.676 184.19 265.854C184.368 266.032 184.458 266.256 184.458 266.527V268.445C184.458 268.716 184.368 268.941 184.19 269.119C184.012 269.296 183.787 269.385 183.516 269.385H179.469C179.198 269.385 178.973 269.296 178.795 269.119C178.617 268.941 178.527 268.716 178.527 268.445V266.527ZM182.169 266.514C182.169 266.244 182.258 266.019 182.436 265.841C182.614 265.663 182.839 265.574 183.11 265.574H190.796C191.068 265.574 191.293 265.663 191.471 265.841C191.649 266.019 191.738 266.244 191.738 266.514V268.445C191.738 268.716 191.649 268.941 191.471 269.119C191.293 269.296 191.068 269.385 190.796 269.385H183.11C182.839 269.385 182.614 269.296 182.436 269.119C182.258 268.941 182.169 268.716 182.169 268.445V266.514ZM189.451 266.514C189.451 266.244 189.54 266.019 189.718 265.841C189.896 265.663 190.121 265.574 190.392 265.574H198.079C198.351 265.574 198.575 265.663 198.753 265.841C198.931 266.019 199.02 266.244 199.02 266.514V268.445C199.02 268.716 198.931 268.941 198.753 269.119C198.575 269.296 198.351 269.385 198.079 269.385H190.392C190.121 269.385 189.896 269.296 189.718 269.119C189.54 268.941 189.451 268.716 189.451 268.445V266.514ZM196.734 266.514C196.734 266.244 196.823 266.019 197.001 265.841C197.179 265.663 197.403 265.574 197.675 265.574H205.362C205.633 265.574 205.858 265.663 206.036 265.841C206.214 266.019 206.303 266.244 206.303 266.514V268.445C206.303 268.716 206.214 268.941 206.036 269.119C205.858 269.296 205.633 269.385 205.362 269.385H197.675C197.403 269.385 197.179 269.296 197.001 269.119C196.823 268.941 196.734 268.716 196.734 268.445V266.514ZM211.647 266.514C211.647 266.244 211.736 266.019 211.914 265.841C212.092 265.663 212.316 265.574 212.588 265.574H220.275C220.546 265.574 220.771 265.663 220.949 265.841C221.127 266.019 221.216 266.244 221.216 266.514V268.445C221.216 268.716 221.127 268.941 220.949 269.119C220.771 269.296 220.546 269.385 220.275 269.385H212.588C212.316 269.385 212.092 269.296 211.914 269.119C211.736 268.941 211.647 268.716 211.647 268.445V266.514ZM218.929 266.514C218.929 266.244 219.018 266.019 219.196 265.841C219.374 265.663 219.599 265.574 219.87 265.574H227.557C227.828 265.574 228.053 265.663 228.231 265.841C228.409 266.019 228.498 266.244 228.498 266.514V268.445C228.498 268.716 228.409 268.941 228.231 269.119C228.053 269.296 227.828 269.385 227.557 269.385H219.87C219.599 269.385 219.374 269.296 219.196 269.119C219.018 268.941 218.929 268.716 218.929 268.445V266.514ZM226.211 266.514C226.211 266.244 226.3 266.019 226.478 265.841C226.656 265.663 226.881 265.574 227.153 265.574H234.839C235.11 265.574 235.335 265.663 235.513 265.841C235.692 266.019 235.781 266.244 235.781 266.514V268.445C235.781 268.716 235.692 268.941 235.513 269.119C235.335 269.296 235.11 269.385 234.839 269.385H227.153C226.881 269.385 226.656 269.296 226.478 269.119C226.3 268.941 226.211 268.716 226.211 268.445V266.514ZM233.493 266.514C233.493 266.244 233.582 266.019 233.76 265.841C233.939 265.663 234.164 265.574 234.435 265.574H242.121C242.393 265.574 242.617 265.663 242.796 265.841C242.974 266.019 243.063 266.244 243.063 266.514V268.445C243.063 268.716 242.974 268.941 242.796 269.119C242.617 269.296 242.393 269.385 242.121 269.385H234.435C234.164 269.385 233.939 269.296 233.76 269.119C233.582 268.941 233.493 268.716 233.493 268.445V266.514ZM240.776 266.514C240.776 266.244 240.865 266.019 241.043 265.841C241.222 265.663 241.446 265.574 241.718 265.574H249.404C249.675 265.574 249.9 265.663 250.079 265.841C250.257 266.019 250.346 266.244 250.346 266.514V268.445C250.346 268.716 250.257 268.941 250.079 269.119C249.9 269.296 249.675 269.385 249.404 269.385H241.718C241.446 269.385 241.222 269.296 241.043 269.119C240.865 268.941 240.776 268.716 240.776 268.445V266.514ZM248.058 266.514C248.058 266.244 248.147 266.019 248.326 265.841C248.504 265.663 248.729 265.574 249 265.574H256.686C256.958 265.574 257.183 265.663 257.361 265.841C257.539 266.019 257.628 266.244 257.628 266.514V268.445C257.628 268.716 257.539 268.941 257.361 269.119C257.183 269.296 256.958 269.385 256.686 269.385H249C248.729 269.385 248.504 269.296 248.326 269.119C248.147 268.941 248.058 268.716 248.058 268.445V266.514ZM255.341 266.514C255.341 266.244 255.43 266.019 255.608 265.841C255.786 265.663 256.011 265.574 256.282 265.574H263.969C264.24 265.574 264.465 265.663 264.643 265.841C264.821 266.019 264.91 266.244 264.91 266.514V268.445C264.91 268.716 264.821 268.941 264.643 269.119C264.465 269.296 264.24 269.385 263.969 269.385H256.282C256.011 269.385 255.786 269.296 255.608 269.119C255.43 268.941 255.341 268.716 255.341 268.445V266.514ZM262.623 266.514C262.623 266.244 262.712 266.019 262.89 265.841C263.068 265.663 263.293 265.574 263.565 265.574H271.251C271.523 265.574 271.747 265.663 271.925 265.841C272.103 266.019 272.192 266.244 272.192 266.514V268.445C272.192 268.716 272.103 268.941 271.925 269.119C271.747 269.296 271.523 269.385 271.251 269.385H263.565C263.293 269.385 263.068 269.296 262.89 269.119C262.712 268.941 262.623 268.716 262.623 268.445V266.514ZM269.906 266.514C269.906 266.244 269.995 266.019 270.173 265.841C270.351 265.663 270.576 265.574 270.848 265.574H278.534C278.805 265.574 279.03 265.663 279.208 265.841C279.386 266.019 279.475 266.244 279.475 266.514V268.445C279.475 268.716 279.386 268.941 279.208 269.119C279.03 269.296 278.805 269.385 278.534 269.385H270.848C270.576 269.385 270.351 269.296 270.173 269.119C269.995 268.941 269.906 268.716 269.906 268.445V266.514ZM277.188 266.514C277.188 266.244 277.277 266.019 277.455 265.841C277.633 265.663 277.859 265.574 278.13 265.574H285.816C286.087 265.574 286.312 265.663 286.49 265.841C286.669 266.019 286.758 266.244 286.758 266.514V268.445C286.758 268.716 286.669 268.941 286.49 269.119C286.312 269.296 286.087 269.385 285.816 269.385H278.13C277.859 269.385 277.633 269.296 277.455 269.119C277.277 268.941 277.188 268.716 277.188 268.445V266.514ZM284.47 266.527C284.47 266.256 284.559 266.032 284.738 265.854C284.916 265.676 285.141 265.587 285.412 265.587H289.459C289.73 265.587 289.955 265.676 290.133 265.854C290.311 266.032 290.4 266.256 290.4 266.527V268.445C290.4 268.716 290.311 268.941 290.133 269.119C289.955 269.296 289.73 269.385 289.459 269.385H285.412C285.141 269.385 284.916 269.296 284.738 269.119C284.559 268.941 284.47 268.716 284.47 268.445V266.527ZM31.4873 281.6C31.4873 281.329 31.5764 281.105 31.7545 280.927C31.9327 280.749 32.1575 280.66 32.429 280.66H40.1152C40.3867 280.66 40.6115 280.749 40.7897 280.927C40.9679 281.105 41.0569 281.329 41.0569 281.6V283.531C41.0569 283.802 40.9679 284.027 40.7897 284.204C40.6115 284.382 40.3867 284.471 40.1152 284.471H32.429C32.1575 284.471 31.9327 284.382 31.7545 284.204C31.5764 284.027 31.4873 283.802 31.4873 283.531V281.6ZM38.7697 281.6C38.7697 281.329 38.8588 281.105 39.0369 280.927C39.2151 280.749 39.4399 280.66 39.7114 280.66H47.3976C47.6692 280.66 47.894 280.749 48.0722 280.927C48.2503 281.105 48.3394 281.329 48.3394 281.6V283.531C48.3394 283.802 48.2503 284.027 48.0722 284.204C47.894 284.382 47.6692 284.471 47.3976 284.471H39.7114C39.4399 284.471 39.2151 284.382 39.0369 284.204C38.8588 284.027 38.7697 283.802 38.7697 283.531V281.6ZM46.0521 281.6C46.0521 281.329 46.1412 281.105 46.3194 280.927C46.4975 280.749 46.7224 280.66 46.9938 280.66H54.6801C54.9515 280.66 55.1764 280.749 55.3545 280.927C55.5327 281.105 55.6218 281.329 55.6218 281.6V283.531C55.6218 283.802 55.5327 284.027 55.3545 284.204C55.1764 284.382 54.9515 284.471 54.6801 284.471H46.9938C46.7224 284.471 46.4975 284.382 46.3194 284.204C46.1412 284.027 46.0521 283.802 46.0521 283.531V281.6ZM60.9649 281.6C60.9649 281.329 61.054 281.105 61.2322 280.927C61.4103 280.749 61.6352 280.66 61.9066 280.66H69.5929C69.8643 280.66 70.0892 280.749 70.2673 280.927C70.4455 281.105 70.5346 281.329 70.5346 281.6V283.531C70.5346 283.802 70.4455 284.027 70.2673 284.204C70.0892 284.382 69.8643 284.471 69.5929 284.471H61.9066C61.6352 284.471 61.4103 284.382 61.2322 284.204C61.054 284.027 60.9649 283.802 60.9649 283.531V281.6ZM68.2473 281.6C68.2473 281.329 68.3364 281.105 68.5145 280.927C68.6927 280.749 68.9175 280.66 69.189 280.66H76.8752C77.1468 280.66 77.3716 280.749 77.5498 280.927C77.7279 281.105 77.817 281.329 77.817 281.6V283.531C77.817 283.802 77.7279 284.027 77.5498 284.204C77.3716 284.382 77.1468 284.471 76.8752 284.471H69.189C68.9175 284.471 68.6927 284.382 68.5145 284.204C68.3364 284.027 68.2473 283.802 68.2473 283.531V281.6ZM75.5297 281.6C75.5297 281.329 75.6188 281.105 75.797 280.927C75.9751 280.749 76.2 280.66 76.4714 280.66H84.1577C84.4289 280.66 84.654 280.749 84.8321 280.927C85.0103 281.105 85.0994 281.329 85.0994 281.6V283.531C85.0994 283.802 85.0103 284.027 84.8321 284.204C84.654 284.382 84.4289 284.471 84.1577 284.471H76.4714C76.2 284.471 75.9751 284.382 75.797 284.204C75.6188 284.027 75.5297 283.802 75.5297 283.531V281.6ZM82.8121 281.6C82.8121 281.329 82.9012 281.105 83.0794 280.927C83.2575 280.749 83.4824 280.66 83.7537 280.66H91.4399C91.7119 280.66 91.9362 280.749 92.1144 280.927C92.2925 281.105 92.3816 281.329 92.3816 281.6V283.531C92.3816 283.802 92.2925 284.027 92.1144 284.204C91.9362 284.382 91.7119 284.471 91.4399 284.471H83.7537C83.4824 284.471 83.2575 284.382 83.0794 284.204C82.9012 284.027 82.8121 283.802 82.8121 283.531V281.6ZM97.7248 281.6C97.7248 281.329 97.8138 281.105 97.992 280.927C98.1702 280.749 98.3952 280.66 98.6664 280.66H106.353C106.625 280.66 106.849 280.749 107.027 280.927C107.205 281.105 107.294 281.329 107.294 281.6V283.531C107.294 283.802 107.205 284.027 107.027 284.204C106.849 284.382 106.625 284.471 106.353 284.471H98.6664C98.3952 284.471 98.1702 284.382 97.992 284.204C97.8138 284.027 97.7248 283.802 97.7248 283.531V281.6ZM105.007 281.6C105.007 281.329 105.096 281.105 105.274 280.927C105.452 280.749 105.677 280.66 105.949 280.66H113.635C113.907 280.66 114.132 280.749 114.31 280.927C114.488 281.105 114.577 281.329 114.577 281.6V283.531C114.577 283.802 114.488 284.027 114.31 284.204C114.132 284.382 113.907 284.471 113.635 284.471H105.949C105.677 284.471 105.452 284.382 105.274 284.204C105.096 284.027 105.007 283.802 105.007 283.531V281.6ZM112.29 281.613C112.29 281.342 112.379 281.117 112.557 280.94C112.735 280.762 112.96 280.673 113.232 280.673H117.278C117.55 280.673 117.775 280.762 117.953 280.94C118.131 281.117 118.22 281.342 118.22 281.613V283.531C118.22 283.802 118.131 284.027 117.953 284.204C117.775 284.382 117.55 284.471 117.278 284.471H113.232C112.96 284.471 112.735 284.382 112.557 284.204C112.379 284.027 112.29 283.802 112.29 283.531V281.613ZM115.931 281.6C115.931 281.329 116.02 281.105 116.198 280.927C116.376 280.749 116.602 280.66 116.873 280.66H124.559C124.83 280.66 125.055 280.749 125.233 280.927C125.412 281.105 125.501 281.329 125.501 281.6V283.531C125.501 283.802 125.412 284.027 125.233 284.204C125.055 284.382 124.83 284.471 124.559 284.471H116.873C116.602 284.471 116.376 284.382 116.198 284.204C116.02 284.027 115.931 283.802 115.931 283.531V281.6ZM123.213 281.613C123.213 281.342 123.302 281.117 123.481 280.94C123.659 280.762 123.884 280.673 124.155 280.673H128.202C128.473 280.673 128.698 280.762 128.876 280.94C129.054 281.117 129.143 281.342 129.143 281.613V283.531C129.143 283.802 129.054 284.027 128.876 284.204C128.698 284.382 128.473 284.471 128.202 284.471H124.155C123.884 284.471 123.659 284.382 123.481 284.204C123.302 284.027 123.213 283.802 123.213 283.531V281.613ZM142.116 281.613C142.116 281.342 142.205 281.117 142.383 280.94C142.561 280.762 142.785 280.673 143.057 280.673H147.104C147.375 280.673 147.6 280.762 147.778 280.94C147.957 281.117 148.046 281.342 148.046 281.613V283.531C148.046 283.802 147.957 284.027 147.778 284.204C147.6 284.382 147.375 284.471 147.104 284.471H143.057C142.785 284.471 142.561 284.382 142.383 284.204C142.205 284.027 142.116 283.802 142.116 283.531V281.613ZM145.757 281.6C145.757 281.329 145.846 281.105 146.024 280.927C146.202 280.749 146.427 280.66 146.698 280.66H154.385C154.656 280.66 154.881 280.749 155.059 280.927C155.237 281.105 155.326 281.329 155.326 281.6V283.531C155.326 283.802 155.237 284.027 155.059 284.204C154.881 284.382 154.656 284.471 154.385 284.471H146.698C146.427 284.471 146.202 284.382 146.024 284.204C145.846 284.027 145.757 283.802 145.757 283.531V281.6ZM153.039 281.6C153.039 281.329 153.128 281.105 153.306 280.927C153.484 280.749 153.709 280.66 153.981 280.66H161.667C161.938 280.66 162.163 280.749 162.341 280.927C162.519 281.105 162.609 281.329 162.609 281.6V283.531C162.609 283.802 162.519 284.027 162.341 284.204C162.163 284.382 161.938 284.471 161.667 284.471H153.981C153.709 284.471 153.484 284.382 153.306 284.204C153.128 284.027 153.039 283.802 153.039 283.531V281.6ZM160.321 281.6C160.321 281.329 160.41 281.105 160.588 280.927C160.766 280.749 160.992 280.66 161.263 280.66H168.949C169.221 280.66 169.445 280.749 169.624 280.927C169.802 281.105 169.891 281.329 169.891 281.6V283.531C169.891 283.802 169.802 284.027 169.624 284.204C169.445 284.382 169.221 284.471 168.949 284.471H161.263C160.992 284.471 160.766 284.382 160.588 284.204C160.41 284.027 160.321 283.802 160.321 283.531V281.6ZM175.234 281.613C175.234 281.342 175.323 281.117 175.501 280.94C175.679 280.762 175.904 280.673 176.176 280.673H180.222C180.494 280.673 180.719 280.762 180.897 280.94C181.075 281.117 181.164 281.342 181.164 281.613V283.531C181.164 283.802 181.075 284.027 180.897 284.204C180.719 284.382 180.494 284.471 180.222 284.471H176.176C175.904 284.471 175.679 284.382 175.501 284.204C175.323 284.027 175.234 283.802 175.234 283.531V281.613ZM178.875 281.6C178.875 281.329 178.964 281.105 179.142 280.927C179.32 280.749 179.545 280.66 179.817 280.66H187.503C187.775 280.66 188 280.749 188.178 280.927C188.356 281.105 188.445 281.329 188.445 281.6V283.531C188.445 283.802 188.356 284.027 188.178 284.204C188 284.382 187.775 284.471 187.503 284.471H179.817C179.545 284.471 179.32 284.382 179.142 284.204C178.964 284.027 178.875 283.802 178.875 283.531V281.6ZM186.158 281.6C186.158 281.329 186.247 281.105 186.425 280.927C186.603 280.749 186.828 280.66 187.1 280.66H194.786C195.057 280.66 195.282 280.749 195.46 280.927C195.639 281.105 195.728 281.329 195.728 281.6V283.531C195.728 283.802 195.639 284.027 195.46 284.204C195.282 284.382 195.057 284.471 194.786 284.471H187.1C186.828 284.471 186.603 284.382 186.425 284.204C186.247 284.027 186.158 283.802 186.158 283.531V281.6ZM193.44 281.613C193.44 281.342 193.529 281.117 193.707 280.94C193.886 280.762 194.111 280.673 194.382 280.673H198.429C198.7 280.673 198.925 280.762 199.103 280.94C199.281 281.117 199.37 281.342 199.37 281.613V283.531C199.37 283.802 199.281 284.027 199.103 284.204C198.925 284.382 198.7 284.471 198.429 284.471H194.382C194.111 284.471 193.886 284.382 193.707 284.204C193.529 284.027 193.44 283.802 193.44 283.531V281.613ZM204.712 281.613C204.712 281.342 204.801 281.117 204.979 280.94C205.157 280.762 205.382 280.673 205.654 280.673H209.7C209.972 280.673 210.197 280.762 210.375 280.94C210.553 281.117 210.642 281.342 210.642 281.613V283.531C210.642 283.802 210.553 284.027 210.375 284.204C210.197 284.382 209.972 284.471 209.7 284.471H205.654C205.382 284.471 205.157 284.382 204.979 284.204C204.801 284.027 204.712 283.802 204.712 283.531V281.613ZM208.353 281.6C208.353 281.329 208.442 281.105 208.62 280.927C208.798 280.749 209.023 280.66 209.295 280.66H216.981C217.252 280.66 217.477 280.749 217.655 280.927C217.834 281.105 217.923 281.329 217.923 281.6V283.531C217.923 283.802 217.834 284.027 217.655 284.204C217.477 284.382 217.252 284.471 216.981 284.471H209.295C209.023 284.471 208.798 284.382 208.62 284.204C208.442 284.027 208.353 283.802 208.353 283.531V281.6ZM215.635 281.6C215.635 281.329 215.724 281.105 215.902 280.927C216.081 280.749 216.306 280.66 216.577 280.66H224.263C224.535 280.66 224.759 280.749 224.938 280.927C225.116 281.105 225.205 281.329 225.205 281.6V283.531C225.205 283.802 225.116 284.027 224.938 284.204C224.759 284.382 224.535 284.471 224.263 284.471H216.577C216.306 284.471 216.081 284.382 215.902 284.204C215.724 284.027 215.635 283.802 215.635 283.531V281.6ZM222.917 281.613C222.917 281.342 223.007 281.117 223.185 280.94C223.363 280.762 223.588 280.673 223.859 280.673H227.907C228.178 280.673 228.403 280.762 228.581 280.94C228.759 281.117 228.848 281.342 228.848 281.613V283.531C228.848 283.802 228.759 284.027 228.581 284.204C228.403 284.382 228.178 284.471 227.907 284.471H223.859C223.588 284.471 223.363 284.382 223.185 284.204C223.007 284.027 222.917 283.802 222.917 283.531V281.613ZM226.559 281.613C226.559 281.342 226.648 281.117 226.827 280.94C227.005 280.762 227.229 280.673 227.501 280.673H231.548C231.819 280.673 232.044 280.762 232.222 280.94C232.4 281.117 232.489 281.342 232.489 281.613V283.531C232.489 283.802 232.4 284.027 232.222 284.204C232.044 284.382 231.819 284.471 231.548 284.471H227.501C227.229 284.471 227.005 284.382 226.827 284.204C226.648 284.027 226.559 283.802 226.559 283.531V281.613ZM230.2 281.6C230.2 281.329 230.29 281.105 230.468 280.927C230.646 280.749 230.87 280.66 231.142 280.66H238.828C239.1 280.66 239.325 280.749 239.503 280.927C239.681 281.105 239.77 281.329 239.77 281.6V283.531C239.77 283.802 239.681 284.027 239.503 284.204C239.325 284.382 239.1 284.471 238.828 284.471H231.142C230.87 284.471 230.646 284.382 230.468 284.204C230.29 284.027 230.2 283.802 230.2 283.531V281.6ZM237.483 281.613C237.483 281.342 237.572 281.117 237.75 280.94C237.928 280.762 238.153 280.673 238.424 280.673H242.471C242.742 280.673 242.967 280.762 243.146 280.94C243.324 281.117 243.413 281.342 243.413 281.613V283.531C243.413 283.802 243.324 284.027 243.146 284.204C242.967 284.382 242.742 284.471 242.471 284.471H238.424C238.153 284.471 237.928 284.382 237.75 284.204C237.572 284.027 237.483 283.802 237.483 283.531V281.613ZM241.124 281.613C241.124 281.342 241.213 281.117 241.391 280.94C241.569 280.762 241.794 280.673 242.065 280.673H246.112C246.383 280.673 246.608 280.762 246.787 280.94C246.965 281.117 247.054 281.342 247.054 281.613V283.531C247.054 283.802 246.965 284.027 246.787 284.204C246.608 284.382 246.383 284.471 246.112 284.471H242.065C241.794 284.471 241.569 284.382 241.391 284.204C241.213 284.027 241.124 283.802 241.124 283.531V281.613Z" fill="black"/>
<path d="M165.106 515.034C165.106 514.763 165.195 514.538 165.373 514.36C165.551 514.182 165.776 514.094 166.048 514.094H173.734C174.005 514.094 174.23 514.182 174.408 514.36C174.587 514.538 174.676 514.763 174.676 515.034V516.965C174.676 517.235 174.587 517.46 174.408 517.638C174.23 517.816 174.005 517.905 173.734 517.905H166.048C165.776 517.905 165.551 517.816 165.373 517.638C165.195 517.46 165.106 517.235 165.106 516.965V515.034ZM180.019 515.034C180.019 514.763 180.108 514.538 180.286 514.36C180.464 514.182 180.689 514.094 180.96 514.094H188.647C188.918 514.094 189.143 514.182 189.321 514.36C189.499 514.538 189.588 514.763 189.588 515.034V516.965C189.588 517.235 189.499 517.46 189.321 517.638C189.143 517.816 188.918 517.905 188.647 517.905H180.96C180.689 517.905 180.464 517.816 180.286 517.638C180.108 517.46 180.019 517.235 180.019 516.965V515.034Z" fill="black"/>
<path d="M184.194 590.463C184.194 590.192 184.283 589.967 184.462 589.789C184.64 589.612 184.865 589.523 185.136 589.523H192.822C193.093 589.523 193.319 589.612 193.497 589.789C193.675 589.967 193.764 590.192 193.764 590.463V592.394C193.764 592.665 193.675 592.889 193.497 593.067C193.319 593.245 193.093 593.334 192.822 593.334H185.136C184.865 593.334 184.64 593.245 184.462 593.067C184.283 592.889 184.194 592.665 184.194 592.394V590.463ZM191.477 590.463C191.477 590.192 191.566 589.967 191.744 589.789C191.922 589.612 192.147 589.523 192.418 589.523H200.104C200.377 589.523 200.601 589.612 200.779 589.789C200.957 589.967 201.046 590.192 201.046 590.463V592.394C201.046 592.665 200.957 592.889 200.779 593.067C200.601 593.245 200.377 593.334 200.104 593.334H192.418C192.147 593.334 191.922 593.245 191.744 593.067C191.566 592.889 191.477 592.665 191.477 592.394V590.463ZM198.759 590.476C198.759 590.205 198.848 589.98 199.026 589.802C199.204 589.624 199.429 589.535 199.7 589.535H203.748C204.019 589.535 204.244 589.624 204.422 589.802C204.601 589.98 204.69 590.205 204.69 590.476V592.394C204.69 592.665 204.601 592.889 204.422 593.067C204.244 593.245 204.019 593.334 203.748 593.334H199.7C199.429 593.334 199.204 593.245 199.026 593.067C198.848 592.889 198.759 592.665 198.759 592.394V590.476ZM202.401 590.476C202.401 590.205 202.49 589.98 202.668 589.802C202.846 589.624 203.07 589.535 203.342 589.535H207.389C207.66 589.535 207.885 589.624 208.064 589.802C208.242 589.98 208.331 590.205 208.331 590.476V592.394C208.331 592.665 208.242 592.889 208.064 593.067C207.885 593.245 207.66 593.334 207.389 593.334H203.342C203.07 593.334 202.846 593.245 202.668 593.067C202.49 592.889 202.401 592.665 202.401 592.394V590.476ZM206.042 590.463C206.042 590.192 206.131 589.967 206.309 589.789C206.487 589.612 206.711 589.523 206.983 589.523H214.67C214.941 589.523 215.166 589.612 215.344 589.789C215.522 589.967 215.611 590.192 215.611 590.463V592.394C215.611 592.665 215.522 592.889 215.344 593.067C215.166 593.245 214.941 593.334 214.67 593.334H206.983C206.711 593.334 206.487 593.245 206.309 593.067C206.131 592.889 206.042 592.665 206.042 592.394V590.463ZM213.324 590.463C213.324 590.192 213.413 589.967 213.591 589.789C213.769 589.612 213.994 589.523 214.266 589.523H221.952C222.223 589.523 222.448 589.612 222.626 589.789C222.805 589.967 222.894 590.192 222.894 590.463V592.394C222.894 592.665 222.805 592.889 222.626 593.067C222.448 593.245 222.223 593.334 221.952 593.334H214.266C213.994 593.334 213.769 593.245 213.591 593.067C213.413 592.889 213.324 592.665 213.324 592.394V590.463ZM220.606 590.463C220.606 590.192 220.695 589.967 220.873 589.789C221.052 589.612 221.277 589.523 221.548 589.523H229.234C229.506 589.523 229.73 589.612 229.909 589.789C230.087 589.967 230.176 590.192 230.176 590.463V592.394C230.176 592.665 230.087 592.889 229.909 593.067C229.73 593.245 229.506 593.334 229.234 593.334H221.548C221.277 593.334 221.052 593.245 220.873 593.067C220.695 592.889 220.606 592.665 220.606 592.394V590.463ZM227.888 590.463C227.888 590.192 227.978 589.967 228.156 589.789C228.334 589.612 228.559 589.523 228.83 589.523H236.516C236.788 589.523 237.013 589.612 237.192 589.789C237.37 589.967 237.459 590.192 237.459 590.463V592.394C237.459 592.665 237.37 592.889 237.192 593.067C237.013 593.245 236.788 593.334 236.516 593.334H228.83C228.559 593.334 228.334 593.245 228.156 593.067C227.978 592.889 227.888 592.665 227.888 592.394V590.463ZM242.801 590.476C242.801 590.205 242.89 589.98 243.068 589.802C243.247 589.624 243.472 589.535 243.743 589.535H247.79C248.062 589.535 248.287 589.624 248.465 589.802C248.643 589.98 248.732 590.205 248.732 590.476V592.394C248.732 592.665 248.643 592.889 248.465 593.067C248.287 593.245 248.062 593.334 247.79 593.334H243.743C243.472 593.334 243.247 593.245 243.068 593.067C242.89 592.889 242.801 592.665 242.801 592.394V590.476ZM246.443 590.463C246.443 590.192 246.532 589.967 246.71 589.789C246.888 589.612 247.113 589.523 247.385 589.523H255.071C255.342 589.523 255.567 589.612 255.746 589.789C255.924 589.967 256.013 590.192 256.013 590.463V592.394C256.013 592.665 255.924 592.889 255.746 593.067C255.567 593.245 255.342 593.334 255.071 593.334H247.385C247.113 593.334 246.888 593.245 246.71 593.067C246.532 592.889 246.443 592.665 246.443 592.394V590.463ZM253.725 590.476C253.725 590.205 253.814 589.98 253.993 589.802C254.171 589.624 254.396 589.535 254.667 589.535H258.714C258.985 589.535 259.21 589.624 259.388 589.802C259.566 589.98 259.655 590.205 259.655 590.476V592.394C259.655 592.665 259.566 592.889 259.388 593.067C259.21 593.245 258.985 593.334 258.714 593.334H254.667C254.396 593.334 254.171 593.245 253.993 593.067C253.814 592.889 253.725 592.665 253.725 592.394V590.476ZM257.366 590.463C257.366 590.192 257.456 589.967 257.634 589.789C257.812 589.612 258.037 589.523 258.308 589.523H265.994C266.266 589.523 266.491 589.612 266.669 589.789C266.847 589.967 266.936 590.192 266.936 590.463V592.394C266.936 592.665 266.847 592.889 266.669 593.067C266.491 593.245 266.266 593.334 265.994 593.334H258.308C258.037 593.334 257.812 593.245 257.634 593.067C257.456 592.889 257.366 592.665 257.366 592.394V590.463ZM264.649 590.463C264.649 590.192 264.738 589.967 264.916 589.789C265.094 589.612 265.319 589.523 265.59 589.523H273.277C273.549 589.523 273.773 589.612 273.951 589.789C274.129 589.967 274.218 590.192 274.218 590.463V592.394C274.218 592.665 274.129 592.889 273.951 593.067C273.773 593.245 273.549 593.334 273.277 593.334H265.59C265.319 593.334 265.094 593.245 264.916 593.067C264.738 592.889 264.649 592.665 264.649 592.394V590.463ZM271.931 590.463C271.931 590.192 272.02 589.967 272.198 589.789C272.376 589.612 272.601 589.523 272.873 589.523H280.559C280.831 589.523 281.056 589.612 281.234 589.789C281.412 589.967 281.501 590.192 281.501 590.463V592.394C281.501 592.665 281.412 592.889 281.234 593.067C281.056 593.245 280.831 593.334 280.559 593.334H272.873C272.601 593.334 272.376 593.245 272.198 593.067C272.02 592.889 271.931 592.665 271.931 592.394V590.463ZM279.214 590.463C279.214 590.192 279.303 589.967 279.481 589.789C279.659 589.612 279.884 589.523 280.156 589.523H287.842C288.113 589.523 288.338 589.612 288.516 589.789C288.694 589.967 288.784 590.192 288.784 590.463V592.394C288.784 592.665 288.694 592.889 288.516 593.067C288.338 593.245 288.113 593.334 287.842 593.334H280.156C279.884 593.334 279.659 593.245 279.481 593.067C279.303 592.889 279.214 592.665 279.214 592.394V590.463ZM286.496 590.476C286.496 590.205 286.585 589.98 286.763 589.802C286.941 589.624 287.167 589.535 287.438 589.535H291.485C291.756 589.535 291.981 589.624 292.159 589.802C292.337 589.98 292.426 590.205 292.426 590.476V592.394C292.426 592.665 292.337 592.889 292.159 593.067C291.981 593.245 291.756 593.334 291.485 593.334H287.438C287.167 593.334 286.941 593.245 286.763 593.067C286.585 592.889 286.496 592.665 286.496 592.394V590.476ZM290.137 590.476C290.137 590.205 290.226 589.98 290.404 589.802C290.583 589.624 290.808 589.535 291.079 589.535H295.126C295.397 589.535 295.622 589.624 295.8 589.802C295.978 589.98 296.067 590.205 296.067 590.476V592.394C296.067 592.665 295.978 592.889 295.8 593.067C295.622 593.245 295.397 593.334 295.126 593.334H291.079C290.808 593.334 290.583 593.245 290.404 593.067C290.226 592.889 290.137 592.665 290.137 592.394V590.476ZM293.778 590.463C293.778 590.192 293.867 589.967 294.046 589.789C294.224 589.612 294.449 589.523 294.72 589.523H302.406C302.678 589.523 302.903 589.612 303.081 589.789C303.259 589.967 303.348 590.192 303.348 590.463V592.394C303.348 592.665 303.259 592.889 303.081 593.067C302.903 593.245 302.678 593.334 302.406 593.334H294.72C294.449 593.334 294.224 593.245 294.046 593.067C293.867 592.889 293.778 592.665 293.778 592.394V590.463ZM301.061 590.463C301.061 590.192 301.15 589.967 301.328 589.789C301.506 589.612 301.731 589.523 302.002 589.523H309.688C309.96 589.523 310.186 589.612 310.364 589.789C310.542 589.967 310.631 590.192 310.631 590.463V592.394C310.631 592.665 310.542 592.889 310.364 593.067C310.186 593.245 309.96 593.334 309.688 593.334H302.002C301.731 593.334 301.506 593.245 301.328 593.067C301.15 592.889 301.061 592.665 301.061 592.394V590.463Z" fill="black"/>
<path d="M23.1917 590.707C23.1917 589.979 23.4311 589.376 23.9099 588.898C24.3887 588.42 24.9929 588.181 25.7225 588.181H46.3793C47.1088 588.181 47.7131 588.42 48.1919 588.898C48.6707 589.376 48.91 589.979 48.91 590.707V595.897C48.91 596.625 48.6707 597.228 48.1919 597.706C47.7131 598.184 47.1088 598.423 46.3793 598.423H25.7225C24.9929 598.423 24.3887 598.184 23.9099 597.706C23.4311 597.228 23.1917 596.625 23.1917 595.897V590.707ZM42.7631 590.707C42.7631 589.979 43.0025 589.376 43.4813 588.898C43.9601 588.42 44.5643 588.181 45.2939 588.181H65.9507C66.6804 588.181 67.2845 588.42 67.7633 588.898C68.2421 589.376 68.4815 589.979 68.4815 590.707V595.897C68.4815 596.625 68.2421 597.228 67.7633 597.706C67.2845 598.184 66.6804 598.423 65.9507 598.423H45.2939C44.5643 598.423 43.9601 598.184 43.4813 597.706C43.0025 597.228 42.7631 596.625 42.7631 595.897V590.707ZM62.3346 590.742C62.3346 590.013 62.574 589.41 63.0528 588.932C63.5316 588.454 64.1358 588.215 64.8654 588.215H75.741C76.4706 588.215 77.0748 588.454 77.5536 588.932C78.0324 589.41 78.2718 590.013 78.2718 590.742V595.897C78.2718 596.625 78.0324 597.228 77.5536 597.706C77.0748 598.184 76.4706 598.423 75.741 598.423H64.8654C64.1358 598.423 63.5316 598.184 63.0528 597.706C62.574 597.228 62.3346 596.625 62.3346 595.897V590.742ZM72.1204 590.707C72.1204 589.979 72.3598 589.376 72.8386 588.898C73.3174 588.42 73.9215 588.181 74.6512 588.181H95.3083C96.0377 588.181 96.6421 588.42 97.1209 588.898C97.5997 589.376 97.8391 589.979 97.8391 590.707V595.897C97.8391 596.625 97.5997 597.228 97.1209 597.706C96.6421 598.184 96.0377 598.423 95.3083 598.423H74.6512C73.9215 598.423 73.3174 598.184 72.8386 597.706C72.3598 597.228 72.1204 596.625 72.1204 595.897V590.707ZM91.6919 590.707C91.6919 589.979 91.9313 589.376 92.4101 588.898C92.8889 588.42 93.4933 588.181 94.2227 588.181H114.879C115.609 588.181 116.213 588.42 116.692 588.898C117.171 589.376 117.41 589.979 117.41 590.707V595.897C117.41 596.625 117.171 597.228 116.692 597.706C116.213 598.184 115.609 598.423 114.879 598.423H94.2227C93.4933 598.423 92.8889 598.184 92.4101 597.706C91.9313 597.228 91.6919 596.625 91.6919 595.897V590.707Z" fill="black"/>
<path d="M26.7151 152.974C26.7151 152.703 26.8042 152.478 26.9823 152.3C27.1605 152.122 27.3853 152.033 27.6568 152.033H35.343C35.6145 152.033 35.8393 152.122 36.0175 152.3C36.1956 152.478 36.2847 152.703 36.2847 152.974V154.905C36.2847 155.175 36.1956 155.4 36.0175 155.578C35.8393 155.756 35.6145 155.845 35.343 155.845H27.6568C27.3853 155.845 27.1605 155.756 26.9823 155.578C26.8042 155.4 26.7151 155.175 26.7151 154.905V152.974ZM33.9975 152.974C33.9975 152.703 34.0865 152.478 34.2647 152.3C34.4429 152.122 34.6677 152.033 34.9392 152.033H42.6254C42.8969 152.033 43.1218 152.122 43.2999 152.3C43.4781 152.478 43.5672 152.703 43.5672 152.974V154.905C43.5672 155.175 43.4781 155.4 43.2999 155.578C43.1218 155.756 42.8969 155.845 42.6254 155.845H34.9392C34.6677 155.845 34.4429 155.756 34.2647 155.578C34.0865 155.4 33.9975 155.175 33.9975 154.905V152.974ZM41.2799 152.974C41.2799 152.703 41.369 152.478 41.5472 152.3C41.7253 152.122 41.9502 152.033 42.2216 152.033H49.9079C50.1793 152.033 50.4042 152.122 50.5823 152.3C50.7605 152.478 50.8496 152.703 50.8496 152.974V154.905C50.8496 155.175 50.7605 155.4 50.5823 155.578C50.4042 155.756 50.1793 155.845 49.9079 155.845H42.2216C41.9502 155.845 41.7253 155.756 41.5472 155.578C41.369 155.4 41.2799 155.175 41.2799 154.905V152.974ZM48.5623 152.974C48.5623 152.703 48.6514 152.478 48.8295 152.3C49.0077 152.122 49.2325 152.033 49.504 152.033H57.1902C57.4618 152.033 57.6866 152.122 57.8648 152.3C58.0429 152.478 58.132 152.703 58.132 152.974V154.905C58.132 155.175 58.0429 155.4 57.8648 155.578C57.6866 155.756 57.4618 155.845 57.1902 155.845H49.504C49.2325 155.845 49.0077 155.756 48.8295 155.578C48.6514 155.4 48.5623 155.175 48.5623 154.905V152.974ZM55.8447 152.974C55.8447 152.703 55.9338 152.478 56.112 152.3C56.2901 152.122 56.515 152.033 56.7864 152.033H64.4727C64.7441 152.033 64.969 152.122 65.1471 152.3C65.3253 152.478 65.4144 152.703 65.4144 152.974V154.905C65.4144 155.175 65.3253 155.4 65.1471 155.578C64.969 155.756 64.7441 155.845 64.4727 155.845H56.7864C56.515 155.845 56.2901 155.756 56.112 155.578C55.9338 155.4 55.8447 155.175 55.8447 154.905V152.974ZM70.7575 152.974C70.7575 152.703 70.8466 152.478 71.0248 152.3C71.2029 152.122 71.4278 152.033 71.6992 152.033H79.3855C79.6569 152.033 79.8818 152.122 80.0599 152.3C80.2381 152.478 80.3272 152.703 80.3272 152.974V154.905C80.3272 155.175 80.2381 155.4 80.0599 155.578C79.8818 155.756 79.6569 155.845 79.3855 155.845H71.6992C71.4278 155.845 71.2029 155.756 71.0248 155.578C70.8466 155.4 70.7575 155.175 70.7575 154.905V152.974ZM78.0399 152.974C78.0399 152.703 78.129 152.478 78.3071 152.3C78.4853 152.122 78.7101 152.033 78.9816 152.033H86.6677C86.9397 152.033 87.164 152.122 87.3421 152.3C87.5203 152.478 87.6094 152.703 87.6094 152.974V154.905C87.6094 155.175 87.5203 155.4 87.3421 155.578C87.164 155.756 86.9397 155.845 86.6677 155.845H78.9816C78.7101 155.845 78.4853 155.756 78.3071 155.578C78.129 155.4 78.0399 155.175 78.0399 154.905V152.974ZM85.322 152.974C85.322 152.703 85.411 152.478 85.5892 152.3C85.7674 152.122 85.9924 152.033 86.2637 152.033H93.9499C94.2219 152.033 94.447 152.122 94.6252 152.3C94.8033 152.478 94.8924 152.703 94.8924 152.974V154.905C94.8924 155.175 94.8033 155.4 94.6252 155.578C94.447 155.756 94.2219 155.845 93.9499 155.845H86.2637C85.9924 155.845 85.7674 155.756 85.5892 155.578C85.411 155.4 85.322 155.175 85.322 154.905V152.974ZM92.605 152.974C92.605 152.703 92.694 152.478 92.8722 152.3C93.0504 152.122 93.2747 152.033 93.5467 152.033H101.233C101.504 152.033 101.729 152.122 101.907 152.3C102.086 152.478 102.175 152.703 102.175 152.974V154.905C102.175 155.175 102.086 155.4 101.907 155.578C101.729 155.756 101.504 155.845 101.233 155.845H93.5467C93.2747 155.845 93.0504 155.756 92.8722 155.578C92.694 155.4 92.605 155.175 92.605 154.905V152.974ZM99.8872 152.974C99.8872 152.703 99.9763 152.478 100.154 152.3C100.333 152.122 100.558 152.033 100.829 152.033H108.515C108.786 152.033 109.011 152.122 109.19 152.3C109.368 152.478 109.457 152.703 109.457 152.974V154.905C109.457 155.175 109.368 155.4 109.19 155.578C109.011 155.756 108.786 155.845 108.515 155.845H100.829C100.558 155.845 100.333 155.756 100.154 155.578C99.9763 155.4 99.8872 155.175 99.8872 154.905V152.974ZM114.8 152.974C114.8 152.703 114.889 152.478 115.067 152.3C115.245 152.122 115.47 152.033 115.742 152.033H123.428C123.699 152.033 123.924 152.122 124.102 152.3C124.281 152.478 124.37 152.703 124.37 152.974V154.905C124.37 155.175 124.281 155.4 124.102 155.578C123.924 155.756 123.699 155.845 123.428 155.845H115.742C115.47 155.845 115.245 155.756 115.067 155.578C114.889 155.4 114.8 155.175 114.8 154.905V152.974ZM122.082 152.974C122.082 152.703 122.171 152.478 122.349 152.3C122.528 152.122 122.753 152.033 123.024 152.033H130.71C130.982 152.033 131.206 152.122 131.385 152.3C131.563 152.478 131.652 152.703 131.652 152.974V154.905C131.652 155.175 131.563 155.4 131.385 155.578C131.206 155.756 130.982 155.845 130.71 155.845H123.024C122.753 155.845 122.528 155.756 122.349 155.578C122.171 155.4 122.082 155.175 122.082 154.905V152.974ZM129.364 152.974C129.364 152.703 129.453 152.478 129.632 152.3C129.81 152.122 130.035 152.033 130.306 152.033H137.992C138.264 152.033 138.489 152.122 138.668 152.3C138.846 152.478 138.935 152.703 138.935 152.974V154.905C138.935 155.175 138.846 155.4 138.668 155.578C138.489 155.756 138.264 155.845 137.992 155.845H130.306C130.035 155.845 129.81 155.756 129.632 155.578C129.453 155.4 129.364 155.175 129.364 154.905V152.974ZM136.647 152.974C136.647 152.703 136.736 152.478 136.915 152.3C137.093 152.122 137.317 152.033 137.589 152.033H145.275C145.547 152.033 145.772 152.122 145.95 152.3C146.128 152.478 146.217 152.703 146.217 152.974V154.905C146.217 155.175 146.128 155.4 145.95 155.578C145.772 155.756 145.547 155.845 145.275 155.845H137.589C137.317 155.845 137.093 155.756 136.915 155.578C136.736 155.4 136.647 155.175 136.647 154.905V152.974ZM143.93 152.974C143.93 152.703 144.019 152.478 144.197 152.3C144.375 152.122 144.6 152.033 144.871 152.033H152.558C152.829 152.033 153.054 152.122 153.232 152.3C153.41 152.478 153.499 152.703 153.499 152.974V154.905C153.499 155.175 153.41 155.4 153.232 155.578C153.054 155.756 152.829 155.845 152.558 155.845H144.871C144.6 155.845 144.375 155.756 144.197 155.578C144.019 155.4 143.93 155.175 143.93 154.905V152.974Z" fill="black"/>
<path d="M24.854 191.644C24.854 190.933 25.0878 190.343 25.5555 189.877C26.0232 189.41 26.6133 189.176 27.3259 189.176H47.5024C48.215 189.176 48.8051 189.41 49.2728 189.877C49.7405 190.343 49.9743 190.933 49.9743 191.644V196.713C49.9743 197.424 49.7405 198.013 49.2728 198.48C48.8051 198.947 48.215 199.181 47.5024 199.181H27.3259C26.6133 199.181 26.0232 198.947 25.5555 198.48C25.0878 198.013 24.854 197.424 24.854 196.713V191.644ZM43.9704 191.644C43.9704 190.933 44.2042 190.343 44.6719 189.877C45.1395 189.41 45.7297 189.176 46.4423 189.176H66.6187C67.3314 189.176 67.9215 189.41 68.3892 189.877C68.8568 190.343 69.0907 190.933 69.0907 191.644V196.713C69.0907 197.424 68.8568 198.013 68.3892 198.48C67.9215 198.947 67.3314 199.181 66.6187 199.181H46.4423C45.7297 199.181 45.1395 198.947 44.6719 198.48C44.2042 198.013 43.9704 197.424 43.9704 196.713V191.644ZM63.0867 191.644C63.0867 190.933 63.3205 190.343 63.7882 189.877C64.2558 189.41 64.846 189.176 65.5586 189.176H85.7348C86.4474 189.176 87.0376 189.41 87.5052 189.877C87.9729 190.343 88.2067 190.933 88.2067 191.644V196.713C88.2067 197.424 87.9729 198.013 87.5052 198.48C87.0376 198.947 86.4474 199.181 85.7348 199.181H65.5586C64.846 199.181 64.2558 198.947 63.7882 198.48C63.3205 198.013 63.0867 197.424 63.0867 196.713V191.644ZM82.203 191.644C82.203 190.933 82.4369 190.343 82.9045 189.877C83.3722 189.41 83.9619 189.176 84.6746 189.176H104.851C105.564 189.176 106.154 189.41 106.621 189.877C107.089 190.343 107.323 190.933 107.323 191.644V196.713C107.323 197.424 107.089 198.013 106.621 198.48C106.154 198.947 105.564 199.181 104.851 199.181H84.6746C83.9619 199.181 83.3722 198.947 82.9045 198.48C82.4369 198.013 82.203 197.424 82.203 196.713V191.644ZM101.32 191.644C101.32 190.933 101.553 190.343 102.021 189.877C102.489 189.41 103.079 189.176 103.792 189.176H123.968C124.681 189.176 125.271 189.41 125.738 189.877C126.206 190.343 126.44 190.933 126.44 191.644V196.713C126.44 197.424 126.206 198.013 125.738 198.48C125.271 198.947 124.681 199.181 123.968 199.181H103.792C103.079 199.181 102.489 198.947 102.021 198.48C101.553 198.013 101.32 197.424 101.32 196.713V191.644ZM120.436 191.644C120.436 190.933 120.67 190.343 121.137 189.877C121.605 189.41 122.195 189.176 122.908 189.176H143.084C143.797 189.176 144.387 189.41 144.855 189.877C145.322 190.343 145.556 190.933 145.556 191.644V196.713C145.556 197.424 145.322 198.013 144.855 198.48C144.387 198.947 143.797 199.181 143.084 199.181H122.908C122.195 199.181 121.605 198.947 121.137 198.48C120.67 198.013 120.436 197.424 120.436 196.713V191.644ZM139.552 191.677C139.552 190.966 139.786 190.377 140.254 189.91C140.721 189.443 141.311 189.21 142.024 189.21H152.647C153.359 189.21 153.949 189.443 154.417 189.91C154.885 190.377 155.119 190.966 155.119 191.677V196.713C155.119 197.424 154.885 198.013 154.417 198.48C153.949 198.947 153.359 199.181 152.647 199.181H142.024C141.311 199.181 140.721 198.947 140.254 198.48C139.786 198.013 139.552 197.424 139.552 196.713V191.677ZM169.14 191.644C169.14 190.933 169.374 190.343 169.841 189.877C170.309 189.41 170.899 189.176 171.612 189.176H191.788C192.501 189.176 193.091 189.41 193.559 189.877C194.026 190.343 194.26 190.933 194.26 191.644V196.713C194.26 197.424 194.026 198.013 193.559 198.48C193.091 198.947 192.501 199.181 191.788 199.181H171.612C170.899 199.181 170.309 198.947 169.841 198.48C169.374 198.013 169.14 197.424 169.14 196.713V191.644ZM188.256 191.644C188.256 190.933 188.49 190.343 188.958 189.877C189.425 189.41 190.015 189.176 190.728 189.176H210.904C211.617 189.176 212.207 189.41 212.675 189.877C213.142 190.343 213.376 190.933 213.376 191.644V196.713C213.376 197.424 213.142 198.013 212.675 198.48C212.207 198.947 211.617 199.181 210.904 199.181H190.728C190.015 199.181 189.425 198.947 188.958 198.48C188.49 198.013 188.256 197.424 188.256 196.713V191.644ZM207.372 191.644C207.372 190.933 207.606 190.343 208.074 189.877C208.541 189.41 209.132 189.176 209.844 189.176H230.021C230.733 189.176 231.323 189.41 231.791 189.877C232.259 190.343 232.493 190.933 232.493 191.644V196.713C232.493 197.424 232.259 198.013 231.791 198.48C231.323 198.947 230.733 199.181 230.021 199.181H209.844C209.132 199.181 208.541 198.947 208.074 198.48C207.606 198.013 207.372 197.424 207.372 196.713V191.644ZM226.489 191.644C226.489 190.933 226.723 190.343 227.191 189.877C227.658 189.41 228.249 189.176 228.961 189.176H249.138C249.85 189.176 250.44 189.41 250.908 189.877C251.376 190.343 251.61 190.933 251.61 191.644V196.713C251.61 197.424 251.376 198.013 250.908 198.48C250.44 198.947 249.85 199.181 249.138 199.181H228.961C228.249 199.181 227.658 198.947 227.191 198.48C226.723 198.013 226.489 197.424 226.489 196.713V191.644Z" fill="black"/>
<path d="M296.688 643.927H54.9023C53.1453 643.927 51.7209 645.349 51.7209 647.103V693.154C51.7209 694.909 53.1453 696.33 54.9023 696.33H296.688C298.445 696.33 299.87 694.909 299.87 693.154V647.103C299.87 645.349 298.445 643.927 296.688 643.927Z" fill="#0F1010"/>
<path d="M328.502 91.3091H304.642C302.006 91.3091 299.87 93.442 299.87 96.073V119.893C299.87 122.524 302.006 124.657 304.642 124.657H328.502C331.138 124.657 333.274 122.524 333.274 119.893V96.073C333.274 93.442 331.138 91.3091 328.502 91.3091Z" fill="black"/>
<path d="M317.367 23.0258H293.507C290.871 23.0258 288.735 25.1586 288.735 27.7897V51.6094C288.735 54.2405 290.871 56.3734 293.507 56.3734H317.367C320.003 56.3734 322.14 54.2405 322.14 51.6094V27.7897C322.14 25.1586 320.003 23.0258 317.367 23.0258Z" fill="white"/>
<path d="M50.1301 26.9957H32.6324C29.9969 26.9957 27.8604 29.1286 27.8604 31.7597V49.2275C27.8604 51.8585 29.9969 53.9914 32.6324 53.9914H50.1301C52.7657 53.9914 54.9022 51.8585 54.9022 49.2275V31.7597C54.9022 29.1286 52.7657 26.9957 50.1301 26.9957Z" fill="black"/>
<path d="M21.1558 548.099C21.1558 547.641 21.3061 547.263 21.6067 546.962C21.9074 546.662 22.2867 546.512 22.7449 546.512H35.7154C36.1735 546.512 36.5529 546.662 36.8536 546.962C37.1542 547.263 37.3045 547.641 37.3045 548.099V551.357C37.3045 551.814 37.1542 552.193 36.8536 552.493C36.5529 552.793 36.1735 552.944 35.7154 552.944H22.7449C22.2867 552.944 21.9074 552.793 21.6067 552.493C21.3061 552.193 21.1558 551.814 21.1558 551.357V548.099ZM33.4449 548.099C33.4449 547.641 33.5952 547.263 33.8958 546.962C34.1965 546.662 34.5758 546.512 35.034 546.512H48.0045C48.4626 546.512 48.842 546.662 49.1427 546.962C49.4433 547.263 49.5936 547.641 49.5936 548.099V551.357C49.5936 551.814 49.4433 552.193 49.1427 552.493C48.842 552.793 48.4626 552.944 48.0045 552.944H35.034C34.5758 552.944 34.1965 552.793 33.8958 552.493C33.5952 552.193 33.4449 551.814 33.4449 551.357V548.099ZM45.7339 548.099C45.7339 547.641 45.8842 547.263 46.1848 546.962C46.4855 546.662 46.8649 546.512 47.323 546.512H60.2935C60.7516 546.512 61.131 546.662 61.4317 546.962C61.7323 547.263 61.8826 547.641 61.8826 548.099V551.357C61.8826 551.814 61.7323 552.193 61.4317 552.493C61.131 552.793 60.7516 552.944 60.2935 552.944H47.323C46.8649 552.944 46.4855 552.793 46.1848 552.493C45.8842 552.193 45.7339 551.814 45.7339 551.357V548.099ZM58.023 548.099C58.023 547.641 58.1733 547.263 58.4739 546.962C58.7746 546.662 59.1539 546.512 59.6121 546.512H72.5826C73.0407 546.512 73.4201 546.662 73.7208 546.962C74.0214 547.263 74.1717 547.641 74.1717 548.099V551.357C74.1717 551.814 74.0214 552.193 73.7208 552.493C73.4201 552.793 73.0407 552.944 72.5826 552.944H59.6121C59.1539 552.944 58.7746 552.793 58.4739 552.493C58.1733 552.193 58.023 551.814 58.023 551.357V548.099Z" fill="black"/>
<path d="M104.214 539.12H96.2604C93.6248 539.12 91.4883 541.253 91.4883 543.884V551.824C91.4883 554.455 93.6248 556.588 96.2604 556.588H104.214C106.849 556.588 108.986 554.455 108.986 551.824V543.884C108.986 541.253 106.849 539.12 104.214 539.12Z" fill="black"/>
<path d="M126.142 548.099C126.142 547.641 126.292 547.263 126.593 546.962C126.893 546.662 127.273 546.512 127.731 546.512H140.701C141.159 546.512 141.539 546.662 141.839 546.962C142.14 547.263 142.29 547.641 142.29 548.099V551.357C142.29 551.814 142.14 552.193 141.839 552.493C141.539 552.793 141.159 552.944 140.701 552.944H127.731C127.273 552.944 126.893 552.793 126.593 552.493C126.292 552.193 126.142 551.814 126.142 551.357V548.099ZM138.431 548.099C138.431 547.641 138.581 547.263 138.881 546.962C139.182 546.662 139.562 546.512 140.02 546.512H152.99C153.448 546.512 153.828 546.662 154.128 546.962C154.429 547.263 154.579 547.641 154.579 548.099V551.357C154.579 551.814 154.429 552.193 154.128 552.493C153.828 552.793 153.448 552.944 152.99 552.944H140.02C139.562 552.944 139.182 552.793 138.881 552.493C138.581 552.193 138.431 551.814 138.431 551.357V548.099ZM150.719 548.099C150.719 547.641 150.87 547.263 151.17 546.962C151.471 546.662 151.85 546.512 152.309 546.512H165.279C165.737 546.512 166.117 546.662 166.417 546.962C166.718 547.263 166.868 547.641 166.868 548.099V551.357C166.868 551.814 166.718 552.193 166.417 552.493C166.117 552.793 165.737 552.944 165.279 552.944H152.309C151.85 552.944 151.471 552.793 151.17 552.493C150.87 552.193 150.719 551.814 150.719 551.357V548.099ZM163.009 548.099C163.009 547.641 163.16 547.263 163.46 546.962C163.761 546.662 164.14 546.512 164.598 546.512H177.569C178.027 546.512 178.406 546.662 178.707 546.962C179.008 547.263 179.158 547.641 179.158 548.099V551.357C179.158 551.814 179.008 552.193 178.707 552.493C178.406 552.793 178.027 552.944 177.569 552.944H164.598C164.14 552.944 163.761 552.793 163.46 552.493C163.16 552.193 163.009 551.814 163.009 551.357V548.099Z" fill="black"/>
<path d="M209.2 539.12H201.246C198.611 539.12 196.474 541.253 196.474 543.884V551.824C196.474 554.455 198.611 556.588 201.246 556.588H209.2C211.836 556.588 213.972 554.455 213.972 551.824V543.884C213.972 541.253 211.836 539.12 209.2 539.12Z" fill="black"/>
<path d="M231.128 548.099C231.128 547.641 231.278 547.263 231.579 546.962C231.879 546.662 232.259 546.512 232.717 546.512H245.687C246.146 546.512 246.525 546.662 246.826 546.962C247.126 547.263 247.277 547.641 247.277 548.099V551.357C247.277 551.814 247.126 552.193 246.826 552.493C246.525 552.793 246.146 552.944 245.687 552.944H232.717C232.259 552.944 231.879 552.793 231.579 552.493C231.278 552.193 231.128 551.814 231.128 551.357V548.099ZM243.417 548.099C243.417 547.641 243.567 547.263 243.868 546.962C244.168 546.662 244.548 546.512 245.006 546.512H257.976C258.435 546.512 258.814 546.662 259.115 546.962C259.415 547.263 259.566 547.641 259.566 548.099V551.357C259.566 551.814 259.415 552.193 259.115 552.493C258.814 552.793 258.435 552.944 257.976 552.944H245.006C244.548 552.944 244.168 552.793 243.868 552.493C243.567 552.193 243.417 551.814 243.417 551.357V548.099ZM255.706 548.099C255.706 547.641 255.856 547.263 256.157 546.962C256.457 546.662 256.837 546.512 257.295 546.512H270.265C270.723 546.512 271.103 546.662 271.403 546.962C271.704 547.263 271.854 547.641 271.854 548.099V551.357C271.854 551.814 271.704 552.193 271.403 552.493C271.103 552.793 270.723 552.944 270.265 552.944H257.295C256.837 552.944 256.457 552.793 256.157 552.493C255.856 552.193 255.706 551.814 255.706 551.357V548.099ZM267.995 548.099C267.995 547.641 268.146 547.263 268.446 546.962C268.747 546.662 269.126 546.512 269.585 546.512H282.555C283.013 546.512 283.393 546.662 283.693 546.962C283.994 547.263 284.144 547.641 284.144 548.099V551.357C284.144 551.814 283.994 552.193 283.693 552.493C283.393 552.793 283.013 552.944 282.555 552.944H269.585C269.126 552.944 268.747 552.793 268.446 552.493C268.146 552.193 267.995 551.814 267.995 551.357V548.099Z" fill="black"/>
<path d="M314.186 539.12H306.233C303.597 539.12 301.46 541.253 301.46 543.884V551.824C301.46 554.455 303.597 556.588 306.233 556.588H314.186C316.822 556.588 318.958 554.455 318.958 551.824V543.884C318.958 541.253 316.822 539.12 314.186 539.12Z" fill="black"/>
<path d="M346 294.571H4V513.712H346V294.571Z" fill="#EFEFEF"/>
<path d="M109.781 402.554H207.609V431.931H109.781V402.554Z" fill="#D9D9D9"/>
<path d="M179.374 373.176L207.609 402.554H151.128L179.374 373.176Z" fill="#D9D9D9"/>
<path d="M207.609 373.176L237.037 402.554H207.609L179.375 373.176H207.609Z" fill="#A2A2A2"/>
<path d="M151.14 402.554H109.781L129.665 383.498H169.433L151.14 402.554Z" fill="#A2A2A2"/>
<path d="M237.037 402.554H207.609V431.931H237.037V402.554Z" fill="#A1A1A1"/>
<path d="M329.298 398.584H305.437C302.802 398.584 300.665 400.717 300.665 403.348V427.167C300.665 429.798 302.802 431.931 305.437 431.931H329.298C331.933 431.931 334.07 429.798 334.07 427.167V403.348C334.07 400.717 331.933 398.584 329.298 398.584Z" fill="#B8B8B8"/>
<path d="M53.3115 398.584H29.451C26.8155 398.584 24.679 400.717 24.679 403.348V427.167C24.679 429.798 26.8155 431.931 29.451 431.931H53.3115C55.9471 431.931 58.0836 429.798 58.0836 427.167V403.348C58.0836 400.717 55.9471 398.584 53.3115 398.584Z" fill="#B8B8B8"/>
<path d="M322.14 480.365H311.005C308.369 480.365 306.233 482.498 306.233 485.129V496.245C306.233 498.876 308.369 501.009 311.005 501.009H322.14C324.775 501.009 326.912 498.876 326.912 496.245V485.129C326.912 482.498 324.775 480.365 322.14 480.365Z" fill="#FF8484"/>
</g>
</g>
<defs>
<filter id="filter0_d_38_46" x="0" y="0" width="350" height="748" filterUnits="userSpaceOnUse" color-interpolation-filters="sRGB">
<feFlood flood-opacity="0" result="BackgroundImageFix"/>
<feColorMatrix in="SourceAlpha" type="matrix" values="0 0 0 0 0 0 0 0 0 0 0 0 0 0 0 0 0 0 127 0" result="hardAlpha"/>
<feOffset dy="4"/>
<feGaussianBlur stdDeviation="2"/>
<feComposite in2="hardAlpha" operator="out"/>
<feColorMatrix type="matrix" values="0 0 0 0 0 0 0 0 0 0 0 0 0 0 0 0 0 0 0.25 0"/>
<feBlend mode="normal" in2="BackgroundImageFix" result="effect1_dropShadow_38_46"/>
<feBlend mode="normal" in="SourceGraphic" in2="effect1_dropShadow_38_46" result="shape"/>
</filter>
<clipPath id="clip0_38_46">
<rect width="342" height="740" fill="white" transform="translate(4)"/>
</clipPath>
</defs>
</svg>
